<svg xmlns="http://www.w3.org/2000/svg" width="60.378" height="57.271" viewBox="0 0 60.378 57.271">
  <path id="instagram" d="M30.121,45.777c-8.567,0-15.477,6.556-15.477,14.684s6.91,14.684,15.477,14.684S45.6,68.588,45.6,60.461,38.688,45.777,30.121,45.777Zm0,24.23a9.56,9.56,0,1,1,0-19.093,9.56,9.56,0,1,1,0,19.093Zm19.72-24.831a3.615,3.615,0,1,1-3.61-3.425A3.513,3.513,0,0,1,49.841,45.176Zm10.251,3.476c-.229-4.588-1.334-8.652-4.876-12s-7.812-4.4-12.648-4.626c-4.984-.268-19.922-.268-24.906,0-4.822.217-9.106,1.265-12.648,4.613S.38,44.052.137,48.64c-.283,4.728-.283,18.9,0,23.629.229,4.588,1.334,8.652,4.876,12s7.812,4.4,12.648,4.626c4.984.268,19.922.268,24.906,0,4.836-.217,9.119-1.265,12.648-4.626s4.634-7.412,4.876-12C60.374,67.541,60.374,53.381,60.091,48.652Zm-6.439,28.69a9.94,9.94,0,0,1-5.738,5.444c-3.974,1.5-13.4,1.15-17.794,1.15s-13.833.332-17.794-1.15a9.941,9.941,0,0,1-5.738-5.444c-1.576-3.77-1.212-12.716-1.212-16.882s-.35-13.125,1.212-16.882a9.941,9.941,0,0,1,5.738-5.444c3.974-1.5,13.4-1.15,17.794-1.15s13.833-.332,17.794,1.15a9.941,9.941,0,0,1,5.738,5.444c1.576,3.77,1.212,12.716,1.212,16.882S55.229,73.585,53.653,77.342Z" transform="translate(0.075 -31.825)" fill="#8c6b7c"/>
</svg>
