<svg xmlns="http://www.w3.org/2000/svg" width="120.448" height="113.813" viewBox="0 0 120.448 113.813">
  <path id="logo" d="M95.615,19v4.049c7.557.366,18.168-.412,25.255,2.242-7.872,1.415-17.8,1.331-25.255,1.357V31.6a183.235,183.235,0,0,0,29.7-2c3.249-.533,10.921-3.852,4.177-6.1l-1.694-.643c2.189.5,9.782,3.1,5.842,5.552-5.113,2.37-8.371,2.58-13.756,3.294l6.565-.362A303.869,303.869,0,0,1,95.615,33.4v85.023c6.143-1.415,12.206-5.867,17.172-9.506,15.158-11.106,27.035-26.872,31.5-44.927,2.955-11.952.486-27.8-12.47-33.289,2.013-.98,7.565-1.369,7.926-4.062.44-3.288-7.546-4.319-9.782-4.755A184.386,184.386,0,0,0,95.615,19Zm41.527,11.934a8.6,8.6,0,0,0-1.614.212v.45c23.8,13.143,10.311,45.45-2.6,61.18a82.528,82.528,0,0,1-9,9.82,104.543,104.543,0,0,1-14.851,11.131c-2.291,1.382-5.541,2.318-6.033,5.14,6.579-.956,13.326-5.777,18.564-9.516,16.033-11.447,28.167-28.085,31.932-47.166,1.829-9.268.274-19.706-6.872-26.534-2.645-2.527-5.83-4.847-9.523-4.717ZM91.9,32.946c-9.278,0-19.254.564-28.311,2.647-2.217.51-8.479,1.375-8.137,4.537.326,3.02,6.3,3.356,8.6,3.671A204.062,204.062,0,0,0,91.9,45.541ZM57.909,44.519a8.373,8.373,0,0,0-4.528,1.372c-11.576,7.7-12.975,22.1-9.417,34.29,4.9,16.794,15.77,31.157,29.838,41.924,5.218,3.994,11.614,8.526,18.1,10.259V47.341A193.2,193.2,0,0,1,65.912,45.6C63.231,45.238,60.512,44.44,57.909,44.519Zm-8.811.408c-2.9.15-5.752,2.337-7.782,4.232-6.693,6.246-8.009,15.21-7.386,23.824,1.457,20.154,16.37,39.68,32.91,50.959,5.061,3.451,11.388,7.964,17.636,8.871-.459-2.736-3.338-3.571-5.569-4.926a79.67,79.67,0,0,1-13.459-9.927c-17.794-16.824-41.871-53.628-13.459-72.42a5.583,5.583,0,0,0-2.891-.615ZM109.993,46.1a5.087,5.087,0,1,1-5.245,5.084,5.167,5.167,0,0,1,5.245-5.084Zm10.786.057a5.087,5.087,0,1,1-5.245,5.084,5.167,5.167,0,0,1,5.245-5.084Zm10.727.286a5.087,5.087,0,1,1-5.246,5.084,5.167,5.167,0,0,1,5.246-5.084ZM62.228,52.064a8.492,8.492,0,1,1-8.615,8.491A8.554,8.554,0,0,1,62.228,52.064Zm53.188,3.377a5.087,5.087,0,1,1-5.246,5.084A5.167,5.167,0,0,1,115.416,55.441Zm10.727.286a5.087,5.087,0,1,1-5.246,5.084A5.167,5.167,0,0,1,126.143,55.727Zm-5.6,8.884a5.087,5.087,0,1,1-5.246,5.084A5.167,5.167,0,0,1,120.544,64.61ZM79.2,67.528a8.776,8.776,0,1,1-9.05,8.772A8.914,8.914,0,0,1,79.2,67.528ZM58.863,82.092a7.424,7.424,0,1,1-7.542,7.423,7.483,7.483,0,0,1,7.542-7.423Z" transform="translate(-33.792 -19)" fill="#8c6b7c"/>
</svg>
