<svg xmlns="http://www.w3.org/2000/svg" width="60.88" height="60.88" viewBox="0 0 60.88 60.88">
  <path id="whatsapp" d="M51.762,40.847A30.178,30.178,0,0,0,4.281,77.252L0,92.88l15.995-4.2A30.076,30.076,0,0,0,30.413,92.35h.014a29.977,29.977,0,0,0,21.335-51.5ZM30.426,87.268a25.03,25.03,0,0,1-12.774-3.492l-.91-.544L7.257,85.719l2.528-9.254-.6-.951a25.123,25.123,0,1,1,46.6-13.331A25.355,25.355,0,0,1,30.426,87.268Zm13.752-18.78c-.747-.381-4.457-2.2-5.15-2.446s-1.2-.38-1.7.381-1.943,2.446-2.392,2.962-.883.571-1.631.19c-4.43-2.215-7.338-3.954-10.26-8.969-.775-1.332.775-1.237,2.215-4.118a1.4,1.4,0,0,0-.068-1.318c-.19-.381-1.7-4.09-2.324-5.6-.612-1.468-1.237-1.264-1.7-1.291-.435-.027-.938-.027-1.44-.027a2.792,2.792,0,0,0-2.011.938,8.471,8.471,0,0,0-2.636,6.292c0,3.71,2.7,7.3,3.071,7.8S23.469,71.4,31.038,74.67c4.783,2.066,6.659,2.242,9.05,1.889,1.454-.217,4.457-1.821,5.082-3.588a6.3,6.3,0,0,0,.435-3.588C45.429,69.044,44.926,68.854,44.179,68.487Z" transform="translate(0 -32)" fill="#8c6b7c"/>
</svg>
