<?xml version="1.0" encoding="UTF-8" standalone="no"?>
<!-- Created by UniConvertor 2.0rc5 (https://sk1project.net/) -->

<svg
   height="658.93994"
   width="712.42529"
   version="1.1"
   id="60667370-4967-11ee-83bc-a8a1598cb569"
   sodipodi:docname="Sazano_Wine_logoprpl.svg"
   inkscape:export-filename="Sazano_Wine_logo_white_prplborder.svg"
   inkscape:export-xdpi="96"
   inkscape:export-ydpi="96"
   inkscape:version="1.2.2 (732a01da63, 2022-12-09)"
   xmlns:inkscape="http://www.inkscape.org/namespaces/inkscape"
   xmlns:sodipodi="http://sodipodi.sourceforge.net/DTD/sodipodi-0.dtd"
   xmlns="http://www.w3.org/2000/svg"
   xmlns:svg="http://www.w3.org/2000/svg">
  <defs
     id="defs74" />
  <sodipodi:namedview
     id="namedview72"
     pagecolor="#ffffff"
     bordercolor="#000000"
     borderopacity="0.25"
     inkscape:showpageshadow="2"
     inkscape:pageopacity="0.0"
     inkscape:pagecheckerboard="0"
     inkscape:deskcolor="#d1d1d1"
     showgrid="false"
     inkscape:zoom="0.93483486"
     inkscape:cx="147.0848"
     inkscape:cy="293.0999"
     inkscape:window-width="1920"
     inkscape:window-height="991"
     inkscape:window-x="-9"
     inkscape:window-y="-9"
     inkscape:window-maximized="1"
     inkscape:current-layer="g69" />
  <g
     id="g69"
     transform="translate(31.021523,16.045616)">
    <rect
       style="fill:#843769;fill-opacity:1;stroke-width:1.02742"
       id="rect840"
       width="712.42529"
       height="658.93994"
       x="-31.021523"
       y="-642.89435"
       ry="100.44143"
       transform="scale(1,-1)" />
    <path
       id="path41"
       style="fill:#ffffff;fill-opacity:1;stroke-width:1.04355"
       d="m 419.98474,-4.5008791 c -10.73866,-0.217623 -17.9655,1.577833 -29.52631,10.985137 34.5641,0 68.0657,1.5943591 101.69179,10.1527111 7.98249,2.031836 33.9836,6.428111 32.29267,19.168256 -1.59835,12.03948 -28.14348,15.707775 -37.27093,17.937003 -40.02164,9.774335 -84.79393,10.336787 -125.83159,10.336787 3.29138,-5.304991 7.82747,-12.776992 13.52317,-15.679028 3.91323,-1.99424 6.72129,-1.594476 10.985,-2.158276 l 30.02593,-1.572063 c 8.97817,-1.267134 40.7622,-3.487405 44.51116,-14.1044 4.02346,-11.392325 -21.7853,-15.791996 -29.03885,-16.212843 -20.50941,-1.189948 -43.28348,-5.264171 -57.75473,11.43305 13.1456,-0.116341 17.16506,-1.027578 31.44368,-0.91219 2.62717,0.02123 25.26932,-0.05134 25.45392,4.241887 -0.81946,4.162103 -22.88693,4.395014 -26.51213,4.554813 -9.12641,0.402428 -25.59144,-1.413734 -33.50323,2.847014 -6.86249,3.69569 -14.42601,13.051302 -18.84467,19.276654 -2.7631,3.891826 -10.41271,13.060249 -8.32352,18.423777 1.45175,3.725954 8.72481,2.427733 11.79469,2.427733 11.8687,0 23.54508,-0.428126 35.35764,-1.006272 37.80347,-1.850464 76.54936,-3.56088 113.35242,-13.376055 13.1031,-3.494424 33.7994,-10.429946 32.99138,-27.504768 -0.67492,-14.27279 -13.88788,-21.64996 -25.71188,-25.477909 -26.66894,-8.6337511 -58.47587,-11.9976681 -86.26547,-13.5826271 -1.70031,-0.09698 -3.30605,-0.167302 -4.84014,-0.198391 z M 593.43376,46.144056 c -0.40909,-0.01521 -0.81956,0.01443 -1.22882,0.09408 -5.12999,0.998586 -26.52453,13.099548 -25.21629,18.933048 4.02101,5.915849 10.94101,13.306318 14.78041,18.804199 9.06196,12.97796 16.69281,27.385807 23.05925,41.887097 26.76984,60.96968 26.1954,129.29198 0.88353,190.58629 -6.11997,14.82173 -15.41593,28.21621 -21.44857,42.93427 -2.7319,6.66526 0.8608,11.54632 7.94167,11.38192 23.39007,-0.54348 40.21678,-37.2284 48.98234,-55.36337 30.89315,-63.91854 27.25943,-135.84207 -1.46443,-200.01089 -8.61269,-19.241627 -18.54579,-37.44856 -31.03949,-54.453221 -3.0915,-4.207191 -9.11322,-14.565267 -15.2496,-14.793427 z M 282.4559,59.426029 c -6.1478,-0.05107 -34.89778,1.514622 -40.777,2.294244 -36.33095,4.817635 -41.34063,6.288446 -77.92532,16.820834 -12.74952,4.973036 -30.89656,12.840576 -33.05231,28.472183 -2.31593,16.79249 25.04799,25.29372 37.21204,28.87714 35.30765,10.3995 78.20757,14.16153 114.82136,13.59709 14.57799,-0.96564 11.49692,-0.72051 19.32967,-2.09859 5.92446,-1.04194 9.9129,-4.74752 13.82406,-8.96032 3.00852,-3.24102 6.72964,-6.45579 8.42679,-10.64971 4.1462,-10.24661 3.82583,-28.97041 3.13056,-39.614807 -0.41127,-6.296568 -1.00251,-15.533017 -4.3147,-24.678206 -2.88995,-3.428139 -9.68051,-3.479899 -13.78721,-3.581265 -5.92705,-0.146186 -20.74014,-0.427517 -26.88794,-0.478593 z m 247.65788,0.787429 c -0.80743,0.0094 -1.60319,0.125003 -2.38454,0.359967 -18.57544,5.585913 -37.81503,12.910746 -57.19617,17.104579 -26.42665,5.718519 -54.30211,5.644239 -81.11457,8.213799 -10.79342,1.0344 -22.44485,0.59653 -33.27778,0.13703 -4.2606,-0.18064 -9.74987,-1.79251 -11.85155,3.29697 -3.47128,8.40558 -0.62762,23.272107 -0.62762,32.347967 v 75.39677 262.84153 85.86854 c 0,6.31865 -3.60997,26.97475 6.25583,25.94014 8.98084,-0.94244 18.95523,-7.20326 27.02194,-11.05058 28.89754,-13.78188 55.00822,-36.80905 77.99479,-58.8301 42.02767,-40.26389 84.2825,-86.26141 109.96249,-139.3155 20.96704,-43.31851 30.80755,-89.69295 36.37116,-137.18024 5.64371,-48.16377 -10.48275,-94.36856 -38.33931,-132.991527 -6.03191,-8.36274 -20.70333,-32.279997 -32.81467,-32.139345 z m 58.79262,0.01026 c 6.09378,-0.285053 9.59672,6.284614 14.37623,13.279928 9.97395,14.599817 18.64171,29.797464 25.61235,46.075794 23.91628,55.85005 32.82392,118.56572 8.46569,175.92582 -5.0967,12.00377 -11.00606,23.37826 -17.70319,34.55685 -3.10732,5.18562 -5.7773,10.81106 -11.85359,12.56613 1.78244,-10.0665 7.9674,-19.78434 11.63625,-29.32097 6.30822,-16.3998 11.40716,-33.90869 14.07562,-51.31169 7.34293,-47.86848 1.36623,-98.17088 -18.75327,-142.41613 -8.99332,-19.77908 -24.74871,-37.021566 -32.95686,-56.547615 2.74983,-1.856353 5.06952,-2.713135 7.10077,-2.808154 z M 301.58094,71.20473 c 3.98957,0.134484 7.9683,0.51245 11.92263,1.251703 2.3639,20.07707 7.83105,49.649827 -11.43923,60.406997 -9.92269,5.53911 -23.9517,5.15109 -33.27778,5.15109 -30.81828,0 -60.49905,-4.25001 -90.47395,-11.76139 -9.59022,-2.40222 -29.63449,-6.28425 -34.50863,-16.13921 -2.11521,-4.27772 2.39728,-8.51634 5.40682,-10.92378 8.6491,-6.916077 20.70023,-10.581967 31.18167,-13.560137 27.29603,-7.755375 53.77912,-10.48784 81.93124,-12.616516 13.444,-1.016545 27.28845,-2.212218 39.25723,-1.808757 z m 225.92488,3.000408 c 1.80187,-0.06682 3.60112,0.377988 5.42308,1.730297 12.0039,8.908428 21.60608,23.668045 29.31507,36.313735 26.22284,43.01378 30.24174,83.80467 24.93396,132.99153 -10.4752,97.07002 -66.86665,180.91669 -137.44347,245.21745 -28.72178,26.16683 -58.00532,52.53176 -94.63367,66.84141 V 97.588693 c 15.72994,2.940477 33.04383,0.16434 48.87673,-0.9531 27.59449,-1.94753 54.97599,-4.50566 82.15451,-9.98909 10.96604,-2.21247 21.71376,-5.90712 32.23784,-9.678208 3.12369,-1.119234 6.13281,-2.651798 9.13595,-2.763157 z M 61.840408,125.86248 C 50.915129,129.37576 42.60228,139.82557 36.150875,148.90038 21.428297,169.61037 10.414974,193.5751 3.4580623,218.01409 -26.178858,322.1253 19.563815,432.60289 84.515767,513.31811 c 19.327073,24.01698 41.390633,46.4074 65.718723,65.29111 5.68216,4.41071 24.59695,22.13391 28.66308,6.94778 2.57799,-9.62671 -8.33458,-17.18461 -14.10203,-23.02155 -16.30087,-16.49405 -31.40108,-34.79146 -45.2654,-53.40604 -43.1746,-57.96743 -76.500064,-126.68557 -81.514702,-200.01088 -2.451112,-35.84064 2.597928,-71.13169 15.176485,-104.71775 4.358757,-11.6383 10.115579,-22.72063 16.220478,-33.50968 2.33932,-4.13425 7.403246,-9.72198 7.332323,-14.66047 C 76.6113,146.94847 66.425869,133.6922 61.840408,125.86248 Z m 75.663052,10.95446 c -0.61328,0.0167 -1.22342,0.0902 -1.82799,0.23111 -11.85207,2.76141 -22.85362,15.50595 -30.24127,24.41846 -20.647868,24.90707 -36.531232,51.91598 -43.242409,83.77419 -26.445588,125.53747 42.414899,234.44216 131.719779,315.37834 23.5367,21.33096 47.87427,41.96753 73.83506,60.26587 6.24788,4.40338 19.87636,17.36616 27.98469,15.49905 3.81341,-0.87752 6.3322,-5.0196 8.62005,-7.87837 6.0763,-7.59204 21.02255,-18.59795 22.51693,-28.27175 1.5235,-9.86648 1.04136,-30.58441 1.16789,-41.84619 1.20241,-44.89844 0.0265,-78.75208 0.0265,-123.60784 V 236.86328 184.50442 c 0,-6.42442 1.84638,-16.3517 -1.66755,-21.99073 -8.96938,-14.39239 -29.73109,-7.33025 -44.08938,-7.33025 -34.91457,0 -70.51672,-4.24097 -105.03298,-9.42869 -8.84979,-1.32989 -18.43591,-2.76261 -27.0382,-5.27269 -3.97824,-1.16093 -8.43797,-3.78268 -12.73102,-3.66512 z m -78.890493,6.01718 c 6.316213,0 7.262373,10.48326 5.246368,14.44368 -10.595207,20.81575 -21.73688,40.09647 -28.163429,62.83064 -20.014462,70.80057 -6.835739,150.41146 25.362523,215.71855 12.307967,24.96362 26.398442,48.54509 42.525421,71.20806 4.95008,6.95534 17.9132,18.39055 16.49265,27.22662 C 99.094911,519.3792 82.501806,492.68972 68.42731,471.43102 24.743559,405.4485 -2.5886269,327.06488 8.6678703,247.33506 12.759988,218.35029 24.099919,189.25646 39.685013,164.60804 c 3.37436,-5.3364 11.729673,-21.77392 18.927954,-21.77392 z m 475.510233,7.49999 c -6.11145,0.15643 -12.56961,2.86516 -18.77563,9.13622 -3.78431,3.82534 -5.96998,8.37768 -7.377,13.51513 -4.49147,-7.91663 -7.92743,-15.82291 -16.63889,-19.98227 -17.74337,-8.46996 -41.03602,3.99849 -41.64394,24.17712 -2.02257,-40.02907 -66.34974,-29.0634 -57.48255,10.46564 1.01809,4.54161 2.94943,8.9493 5.88616,12.56203 3.48169,4.28296 7.94007,7.86136 13.16568,9.67821 6.8448,2.38128 12.91285,1.53382 19.75868,-0.24952 -17.22119,22.74254 -3.59911,58.9058 28.07812,51.31169 -3.71879,5.7385 -7.01144,10.85088 -8.00665,17.80202 -6.47146,45.20338 64.74957,43.60434 56.9626,-1.04718 -1.06073,-6.08407 -3.67218,-10.83828 -7.35873,-15.70766 30.71737,7.36372 46.30076,-29.70115 27.03819,-51.31169 6.08981,0.77386 11.75229,1.14573 17.67882,-1.00832 35.17829,-12.78967 15.19795,-60.01925 -11.28486,-59.34142 z m -395.05578,0.10231 c 3.67368,-0.0225 7.42397,1.21227 11.16707,2.04936 11.76783,2.63261 23.45565,4.74767 35.35764,6.59803 43.84858,6.81707 86.93098,6.57141 131.03123,6.57141 v 308.91734 84.82136 c 0,10.59428 0.99515,25.39885 -0.62762,36.65121 -3.5971,9.82355 -15.99673,18.72984 -22.25085,27.22661 C 263.78248,610.75066 235.65746,581.93573 211.59038,560.60267 135.97926,493.5803 68.07999,409.21067 68.07999,302.83546 c 0,-42.597 8.562686,-79.60125 32.23987,-115.18951 8.50141,-12.77869 18.87897,-27.45018 32.23581,-35.45269 2.13082,-1.27663 4.30754,-1.74336 6.51175,-1.75688 z m 339.68557,11.04854 c 19.4709,-0.44537 26.16856,31.58067 5.29917,37.09504 -23.5502,6.22229 -32.3792,-31.06263 -9.35936,-36.55714 1.40721,-0.33582 2.76212,-0.50821 4.06019,-0.5379 z m -59.21104,0.95104 c 19.81021,-1.05284 27.03236,30.51404 6.2741,36.78825 -22.9096,6.92495 -33.08011,-30.13363 -10.3993,-36.12557 1.42803,-0.37732 2.80451,-0.59248 4.1252,-0.66268 z m 115.49931,0.041 c 20.06741,-0.68987 26.45771,31.5168 5.16715,36.84756 -22.96057,5.749 -31.92788,-30.72958 -9.35938,-36.25238 1.45525,-0.35611 2.8544,-0.54919 4.19223,-0.59518 z m -369.03923,16.68325 c -2.72165,-0.0462 -5.55167,0.13177 -8.48803,0.55631 -52.76486,7.62869 -58.580162,86.50508 -7.27951,101.7153 6.75119,2.00113 14.87624,2.20292 21.83853,1.19239 59.6116,-8.65342 49.2691,-102.52464 -6.07099,-103.464 z m 283.117,6.29943 c 1.08881,6.34797 5.23434,11.89321 8.93488,16.84688 -6.62225,0 -12.30969,0.38641 -18.71875,2.09435 4.11084,-6.07988 8.58775,-11.26556 9.35937,-18.84919 z m 57.81161,3.23349 c 2.05877,5.52056 5.64162,9.79844 8.31944,14.66048 -6.41842,-0.50892 -11.34984,-0.26807 -17.67882,1.04718 4.08537,-4.43636 7.2445,-9.88981 9.35938,-15.70766 z m -342.72616,1.58508 c 41.91032,-0.41731 54.11607,69.77207 8.90847,80.61425 -50.21392,12.04251 -67.48819,-68.21819 -17.67881,-79.55071 3.04985,-0.69395 5.97635,-1.03571 8.77034,-1.06354 z m 326.08727,18.31129 c -3.87583,5.61075 -7.47086,10.53359 -10.39931,16.75484 h -1.03993 c -1.07008,-6.04323 -4.87935,-10.2498 -7.27951,-15.70766 6.64928,1.24195 12.1589,0.23352 18.71875,-1.04718 z m -38.40634,4.22961 c 20.09488,-0.23658 24.12217,33.569 2.00877,38.13404 -22.62051,4.66933 -28.60946,-32.5169 -6.23958,-37.61453 1.4795,-0.33713 2.89116,-0.50374 4.23081,-0.51951 z m 56.03032,1.02059 c 19.61838,-0.40186 25.39496,32.63636 4.21455,37.27503 -23.14358,5.0683 -30.78187,-31.34221 -8.31943,-36.73098 1.42704,-0.34236 2.79698,-0.51725 4.10488,-0.54405 z m -29.06322,26.16512 c 0.90703,5.81333 4.52586,9.98175 7.27952,13.61331 -5.36809,-0.42306 -9.34797,-0.6126 -14.55903,1.04718 2.23793,-5.08929 5.71858,-9.21624 7.27951,-14.66049 z m 2.0169,24.33052 c 19.46689,0.92446 23.43924,33.88813 2.14282,37.22798 -23.85178,3.74048 -29.93849,-32.9743 -6.23958,-36.96824 1.43263,-0.24143 2.79897,-0.32138 4.09676,-0.25974 z m -216.70566,3.8676 c -2.85043,-0.0726 -5.81641,0.0962 -8.89629,0.52564 -8.79674,1.22624 -17.57276,3.59574 -24.95833,8.73739 -48.08108,33.47295 -18.66663,111.69264 39.51736,102.54973 62.23234,-9.77926 52.29594,-110.3379 -5.66274,-111.81276 z m -2.51249,11.46373 c 48.3245,0.1621 55.96036,82.33263 4.01551,89.87318 -55.85456,8.10827 -66.9319,-80.49003 -11.43923,-89.2821 2.57119,-0.40736 5.0471,-0.59906 7.42372,-0.59108 z M 146.29209,357.5178 c -3.68236,-0.0559 -7.57394,0.40308 -11.65656,1.45623 -52.872028,13.6384 -31.37459,98.63347 21.83854,84.30391 47.48266,-12.78624 33.26998,-85.10053 -10.18198,-85.76014 z m 1.04197,11.45555 c 35.18707,0.83677 38.97709,59.51309 0.82057,64.45663 -39.86149,5.16362 -45.86189,-58.8428 -6.23959,-64.1478 1.88113,-0.2519 3.6885,-0.34999 5.41902,-0.30883 z"
       sodipodi:nodetypes="scccccccccscsccsccscsccssscccccsccccssccccccccsccssscsccsccsccccccsscccccccccssscscccccssccccccsssscscccccssssccssccscccccscscsccssssccccscssscccccccccccccssccccscccscsssccsscscssccscccscccccccccsccccccccscccsccsccscssccscccsscccsccsscsssss" />
  </g>
</svg>
