<?xml version="1.0" encoding="UTF-8" standalone="no"?>
<!-- Created by UniConvertor 2.0rc5 (https://sk1project.net/) -->

<svg
   height="658.93994"
   width="712.42529"
   version="1.1"
   id="60667370-4967-11ee-83bc-a8a1598cb569"
   sodipodi:docname="Sazano_Wine_logo_white_prplborder.svg"
   inkscape:export-filename="Sazano_Wine_logo_white_prplborder.svg"
   inkscape:export-xdpi="96"
   inkscape:export-ydpi="96"
   inkscape:version="1.2.2 (732a01da63, 2022-12-09)"
   xmlns:inkscape="http://www.inkscape.org/namespaces/inkscape"
   xmlns:sodipodi="http://sodipodi.sourceforge.net/DTD/sodipodi-0.dtd"
   xmlns="http://www.w3.org/2000/svg"
   xmlns:svg="http://www.w3.org/2000/svg">
  <defs
     id="defs74" />
  <sodipodi:namedview
     id="namedview72"
     pagecolor="#ffffff"
     bordercolor="#000000"
     borderopacity="0.25"
     inkscape:showpageshadow="2"
     inkscape:pageopacity="0.0"
     inkscape:pagecheckerboard="0"
     inkscape:deskcolor="#d1d1d1"
     showgrid="false"
     inkscape:zoom="0.93483486"
     inkscape:cx="76.484097"
     inkscape:cy="293.63475"
     inkscape:window-width="1920"
     inkscape:window-height="991"
     inkscape:window-x="-9"
     inkscape:window-y="-9"
     inkscape:window-maximized="1"
     inkscape:current-layer="g69" />
  <g
     id="g69"
     transform="translate(31.021523,16.045616)">
    <rect
       style="fill:#843769;fill-opacity:1;stroke-width:1.02742"
       id="rect840"
       width="712.42529"
       height="658.93994"
       x="-31.021523"
       y="-642.89435"
       ry="100.44143"
       transform="scale(1,-1)" />
    <path
       id="path41"
       style="display:inline;fill:#ffffff;fill-opacity:1;stroke-width:3.79944"
       d="M 526.032,29.515577 C 503.78092,30.085135 480.26752,39.94729 457.67212,62.779485 443.89389,76.707101 435.93613,93.281641 430.81334,111.98648 414.46042,83.162967 401.9505,54.37713 370.23309,39.233396 305.63156,8.3952608 220.82577,53.791424 218.6124,127.25945 211.24846,-18.481697 -22.959206,21.443016 9.3251924,165.36362 c 3.7067366,16.53546 10.7385276,32.58335 21.4308186,45.73686 12.676412,15.59375 28.908858,28.6223 47.934678,35.23723 24.921121,8.66996 47.014181,5.58445 71.939041,-0.90847 -62.700331,82.80292 -13.10393,214.4691 102.22915,186.81984 -13.53969,20.8932 -25.52783,39.50678 -29.15127,64.81505 -23.56184,164.58019 235.74556,158.75829 207.39413,-3.81265 -3.86199,-22.1514 -13.36999,-39.4609 -26.79227,-57.18975 111.83833,26.81044 168.57562,-108.13839 98.44286,-186.81982 22.17229,2.81753 42.7887,4.17146 64.36652,-3.67119 C 695.19886,199.00503 622.4528,27.04768 526.032,29.515577 Z M 324.43557,70.114511 C 395.32681,68.492984 419.71221,185.09603 343.72922,205.1732 257.98569,227.82783 225.84037,92.077816 309.65289,72.072949 c 5.12348,-1.222689 10.05655,-1.850331 14.78268,-1.958438 z M 108.85512,73.577146 C 180.98177,69.743876 207.27677,184.67517 131.69838,207.51884 48.287213,232.73176 11.257596,97.805831 93.835749,75.989893 c 5.19929,-1.373791 10.210901,-2.157148 15.019371,-2.412747 z m 420.51941,0.149326 c 73.06308,-2.511745 96.32942,114.748968 18.81299,134.157618 -83.59674,20.93143 -116.24566,-111.882781 -34.0764,-131.990646 5.2984,-1.296551 10.39254,-1.999531 15.26341,-2.166972 z M 216.5418,157.4037 c 3.96422,23.11223 19.05762,43.30177 32.53084,61.33751 -24.11083,0 -44.81813,1.40689 -68.15276,7.62528 14.96707,-22.13612 31.26699,-41.01658 34.07636,-68.62767 z m 210.48527,11.77277 c 7.49574,20.09969 20.54048,35.67495 30.29011,53.37708 -23.36871,-1.85293 -41.32344,-0.97602 -64.36651,3.81265 14.87437,-16.15226 26.37638,-36.00763 34.0764,-57.18973 z m -60.58024,72.44034 c -14.11145,20.42806 -27.20052,38.35156 -37.86265,61.00239 h -3.78629 c -3.89603,-22.00268 -17.76513,-37.3183 -26.50382,-57.18973 24.20925,4.52178 44.26912,0.85022 68.15276,-3.81266 z m -139.83296,15.39951 c 73.16308,-0.86136 87.82598,122.22078 7.31368,138.84155 -82.35863,17.00048 -104.16367,-118.3902 -22.71757,-136.95009 5.38668,-1.22745 10.52638,-1.83406 15.40389,-1.89146 z m 203.99981,3.71584 c 71.42821,-1.46313 92.46006,118.82514 15.34468,135.71401 -84.26305,18.45309 -112.07316,-114.11332 -30.29008,-133.73318 5.19569,-1.2465 10.18349,-1.88324 14.9454,-1.98083 z m -105.81579,95.26412 c 3.3024,21.16566 16.47814,36.3424 26.50389,49.56447 -19.54459,-1.54032 -34.03486,-2.2304 -53.00771,3.81267 8.14803,-18.52951 20.82067,-33.55524 26.50382,-53.37714 z m 7.34331,88.58458 c 70.87666,3.36586 85.33952,123.38269 7.80176,135.54269 -86.84153,13.61864 -109.00253,-120.05555 -22.71758,-134.59702 5.21604,-0.87901 10.19073,-1.17011 14.91582,-0.94567 z"
       sodipodi:nodetypes="ccccccccccccssccccsccsccccccccccccccccscccsccsccsccscccccc" />
  </g>
</svg>
