<?xml version="1.0" encoding="UTF-8" standalone="no"?>
<!-- Created by UniConvertor 2.0rc5 (https://sk1project.net/) -->

<svg
   height="658.93994"
   width="712.42529"
   version="1.1"
   id="60667370-4967-11ee-83bc-a8a1598cb569"
   sodipodi:docname="Sazano_Wine_logoprpl.svg"
   inkscape:export-filename="Sazano_Wine_logoprpl.svg"
   inkscape:export-xdpi="96"
   inkscape:export-ydpi="96"
   inkscape:version="1.2.2 (732a01da63, 2022-12-09)"
   xmlns:inkscape="http://www.inkscape.org/namespaces/inkscape"
   xmlns:sodipodi="http://sodipodi.sourceforge.net/DTD/sodipodi-0.dtd"
   xmlns="http://www.w3.org/2000/svg"
   xmlns:svg="http://www.w3.org/2000/svg">
  <defs
     id="defs74" />
  <sodipodi:namedview
     id="namedview72"
     pagecolor="#ffffff"
     bordercolor="#000000"
     borderopacity="0.25"
     inkscape:showpageshadow="2"
     inkscape:pageopacity="0.0"
     inkscape:pagecheckerboard="0"
     inkscape:deskcolor="#d1d1d1"
     showgrid="false"
     inkscape:zoom="0.93483486"
     inkscape:cx="35.835206"
     inkscape:cy="229.98714"
     inkscape:window-width="2560"
     inkscape:window-height="1351"
     inkscape:window-x="1911"
     inkscape:window-y="-9"
     inkscape:window-maximized="1"
     inkscape:current-layer="g69" />
  <g
     id="g69"
     transform="translate(31.021523,16.045616)">
    <rect
       style="fill:#edc1da;fill-opacity:1;stroke-width:1.02742"
       id="rect840"
       width="712.42529"
       height="658.93994"
       x="-31.021523"
       y="-16.045616"
       ry="100.44143" />
    <path
       id="path41"
       style="fill:#682749;fill-opacity:1"
       d="m 411.12515,1.7771925 c -10.32632,-0.2078188 -17.27566,1.5067489 -28.39258,10.4902345 33.23694,0 65.45217,1.52253 97.78711,9.695312 7.67598,1.940298 32.67873,6.138512 31.05273,18.304688 -1.53698,11.497078 -27.06286,15.00011 -35.83984,17.128906 -38.48492,9.333982 -81.53808,9.871094 -121,9.871094 3.165,-5.06599 7.52691,-12.201362 13.00391,-14.972656 3.76298,-1.904396 6.46322,-1.522642 10.56322,-2.061042 l 28.87301,-1.501238 c 8.63343,-1.210047 39.19705,-3.33029 42.80205,-13.46897 3.86898,-10.879078 -20.9488,-15.080535 -27.92383,-15.482422 -19.72191,-1.136338 -41.62152,-5.02701 -55.53711,10.917969 12.64084,-0.1111 16.50597,-0.981284 30.23633,-0.871094 2.52629,0.02027 24.29904,-0.04903 24.47656,4.050781 -0.788,3.974592 -22.00814,4.19701 -25.49414,4.34961 -8.77598,0.384298 -24.6088,-1.350042 -32.2168,2.71875 -6.59898,3.529192 -13.87209,12.463315 -18.12109,18.408203 -2.657,3.716492 -10.01289,12.47186 -8.00391,17.59375 1.396,3.558092 8.3898,2.318359 11.3418,2.318359 11.41298,0 22.64102,-0.408838 34,-0.960938 36.35192,-1.767096 73.61008,-3.400455 109,-12.773437 12.59998,-3.336994 32.50161,-9.960057 31.72461,-26.265625 C 522.80818,25.637655 510.10255,18.592841 498.73257,14.937349 473.08763,6.6925651 442.50201,3.4801983 415.77945,1.9666457 414.14443,1.8740395 412.60034,1.806881 411.12515,1.7771925 Z M 577.91421,50.140474 c -0.39338,-0.01453 -0.78808,0.01378 -1.18164,0.08984 -4.933,0.953598 -25.50605,12.509388 -24.24805,18.080078 3.86661,5.649328 10.52091,12.706841 14.21289,17.957031 8.714,12.393276 16.05185,26.152027 22.17383,40.000007 25.74196,58.22288 25.18957,123.46712 0.84961,182 -5.88498,14.15398 -14.824,26.94502 -20.625,41 -2.627,6.36498 0.82774,11.02614 7.63672,10.86914 22.49196,-0.519 38.67258,-35.55118 47.10156,-52.86914 29.70694,-61.03888 26.21274,-129.72212 -1.4082,-191 -8.28198,-18.374767 -17.83368,-35.761435 -29.84766,-52.000003 -2.9728,-4.017648 -8.7633,-13.909072 -14.66406,-14.126953 z M 278.87704,62.824068 c -5.91173,-0.04877 -33.55779,1.446385 -39.21127,2.190883 -34.93594,4.600592 -39.75327,6.00514 -74.9332,16.063023 -12.25998,4.74899 -29.71022,12.262083 -31.7832,27.189456 -2.227,16.03596 24.08622,24.15419 35.7832,27.57617 33.95194,9.93098 75.20462,13.52353 110.41254,12.98452 14.01823,-0.92214 11.05548,-0.68805 18.58746,-2.00405 5.69698,-0.995 9.53228,-4.53364 13.29326,-8.55664 2.893,-3.095 6.47124,-6.16494 8.10322,-10.16992 3.987,-9.78498 3.67893,-27.66524 3.01036,-37.830083 -0.39548,-6.012896 -0.96402,-14.833226 -4.14903,-23.566406 -2.77898,-3.273694 -9.30881,-3.323122 -13.25781,-3.419922 -5.69948,-0.1396 -19.94378,-0.408256 -25.85553,-0.457031 z m 238.1485,0.751953 c -0.77642,0.009 -1.54162,0.119372 -2.29297,0.34375 -17.8622,5.334257 -36.36304,12.329092 -55,16.333984 -25.41194,5.46089 -52.21706,5.389956 -78,7.84375 -10.37898,0.987798 -21.58302,0.569658 -32,0.13086 -4.097,-0.1725 -9.3755,-1.711753 -11.39648,3.148437 -3.338,8.026884 -0.60352,22.223648 -0.60352,30.890628 v 72 251 82 c 0,6.03398 -3.47136,25.75948 6.01562,24.77148 8.636,-0.89998 18.2274,-6.87873 25.98438,-10.55273 27.78794,-13.16098 52.89604,-35.15073 75,-56.17969 40.41392,-38.44992 81.04629,-82.37516 105.74023,-133.03906 20.16196,-41.36692 29.62463,-85.6521 34.97461,-131 5.427,-45.9939 -10.08024,-90.11708 -36.86718,-127.000003 -5.80031,-7.985984 -19.90839,-30.825721 -31.55469,-30.691406 z m 56.53515,0.0098 c 5.8598,-0.272211 9.22824,6.00148 13.82422,12.681641 9.59098,13.942072 17.92593,28.455038 24.62891,43.999998 22.99796,53.3339 31.56357,113.2241 8.14063,168.00001 -4.901,11.46298 -10.58346,22.32502 -17.02344,33 -2.988,4.952 -5.55546,10.324 -11.39844,12 1.714,-9.61298 7.66147,-18.89302 11.18945,-28 6.066,-15.66096 10.96916,-32.38104 13.53516,-49 7.06098,-45.71191 1.31376,-93.74809 -18.0332,-136 -8.648,-18.888 -23.79843,-35.353681 -31.69141,-54.000043 2.64425,-1.772721 4.87487,-2.590903 6.82812,-2.681641 z M 297.26773,74.072115 c 3.83639,0.128426 7.66234,0.489364 11.46484,1.195312 2.27313,19.172562 7.53036,47.413013 -11,57.685553 -9.54168,5.28955 -23.03202,4.91901 -32,4.91901 -29.63494,0 -58.17606,-4.05853 -87,-11.23151 -9.22198,-2.294 -28.49661,-6.00113 -33.18359,-15.41211 -2.034,-4.085 2.30523,-8.13266 5.19921,-10.43164 8.317,-6.604497 19.9054,-10.105231 29.98438,-12.949225 26.24794,-7.405984 51.71415,-10.015346 78.78531,-12.048121 12.92778,-0.970747 26.24065,-2.112553 37.74985,-1.727269 z m 217.25,2.865234 c 1.73268,-0.06381 3.46284,0.360958 5.21484,1.652344 11.54298,8.507082 20.77647,22.601757 28.18945,34.677737 25.21596,41.07592 29.08055,80.0291 23.97657,127 -10.07298,92.69682 -64.29916,172.76604 -132.16602,234.16992 -27.61894,24.98796 -55.77808,50.1651 -91,63.83008 V 99.267427 c 15.12596,2.808003 31.77504,0.156942 47,-0.910156 26.53494,-1.859796 52.86506,-4.302673 79,-9.539063 10.54498,-2.112796 20.88002,-5.640995 31,-9.242187 3.00375,-1.068811 5.89733,-2.53233 8.78516,-2.638672 z M 66.732573,126.26743 c -10.505778,3.355 -18.499437,13.33402 -24.703125,22 -14.157272,19.77696 -24.747714,42.66204 -31.4375,66 -28.498944,99.4208 15.487337,204.92116 77.945313,282 18.584959,22.93496 39.801349,44.31665 63.195309,62.34961 5.46398,4.212 23.6525,21.13673 27.5625,6.63477 2.479,-9.193 -8.01455,-16.4104 -13.56055,-21.98438 -15.67496,-15.75096 -30.19536,-33.22404 -43.52734,-51 -41.516815,-55.35588 -73.562673,-120.97814 -78.384763,-191 -2.356996,-34.22594 2.498174,-67.92706 14.59375,-100 4.191392,-11.11398 9.727168,-21.69702 15.597656,-32 2.249496,-3.948 7.118981,-9.284 7.050781,-14 -0.1283,-8.86398 -9.922639,-21.52302 -14.332031,-29 z m 72.757807,10.46094 c -0.58974,0.016 -1.17644,0.0862 -1.75781,0.2207 -11.39698,2.637 -21.9761,14.80738 -29.08008,23.31836 -19.855053,23.78496 -35.12854,49.57706 -41.582026,80 -25.43015,119.88176 40.786286,223.88008 126.662106,301.16992 22.63296,20.36996 46.03604,40.07682 71,57.55078 6.00798,4.205 19.11316,16.58378 26.91016,14.80078 3.66698,-0.83798 6.08906,-4.79345 8.28906,-7.52343 5.84298,-7.25 20.21534,-17.76007 21.65234,-26.99805 1.465,-9.42198 1.00138,-29.20652 1.12305,-39.96094 1.15624,-42.87567 0.0254,-75.20414 0.0254,-118.03906 v -189 -50 c 0,-6.13498 1.77548,-15.61502 -1.60352,-21 -8.62498,-13.74398 -28.5895,-7 -42.39648,-7 -33.57394,0 -67.80906,-4.04991 -101,-9.00391 -8.50998,-1.26998 -17.72802,-2.63815 -26,-5.03515 -3.8255,-1.10863 -8.11398,-3.61226 -12.24219,-3.5 z m -75.861323,5.74609 c 6.073688,0 6.983518,10.01097 5.044922,13.79297 -10.18838,19.87796 -20.902243,38.29004 -27.082031,60 -19.245962,67.61086 -6.573266,143.63512 24.388672,206 11.835376,23.83896 25.384815,46.35804 40.89257,68 4.76,6.64198 17.22538,17.56202 15.85938,26 -20.17596,-14.21198 -36.131939,-39.69904 -49.666013,-60 -42.006416,-63.00988 -68.2891221,-137.86216 -57.464843,-214 3.934992,-27.67894 14.839501,-55.46204 29.826171,-79 3.244794,-5.09598 11.279286,-20.79297 18.201172,-20.79297 z m 457.251953,7.16211 c -5.87678,0.14938 -12.08697,2.73607 -18.05469,8.72461 -3.639,3.653 -5.74075,8.00025 -7.09375,12.90625 -4.319,-7.55997 -7.62303,-15.11006 -16,-19.08203 -17.06207,-8.08838 -39.46035,3.81835 -40.04492,23.08789 -1.94491,-38.22568 -63.8021,-27.75404 -55.27539,9.99414 0.979,4.337 2.83618,8.54612 5.66015,11.99609 3.348,4.09 7.63519,7.50719 12.66016,9.24219 6.58197,2.274 12.41703,1.46472 19,-0.23828 -16.55994,21.71794 -3.46091,56.25197 27,49 -3.576,5.47997 -6.74222,10.36203 -7.69922,17 -6.22297,43.16688 62.26336,41.63988 54.77539,-1 -1.02,-5.80997 -3.53117,-10.35 -7.07617,-15 29.53791,7.03197 44.52294,-28.36306 26,-49 5.85597,0.739 11.30103,1.09411 17,-0.96289 33.82753,-12.21347 14.61439,-57.31526 -10.85156,-56.66797 z m -379.88672,0.0977 c 3.53262,-0.0215 7.13891,1.15765 10.73828,1.95703 11.31598,2.514 22.55502,4.53378 34,6.30078 42.16492,6.50994 83.59308,6.27535 126,6.27535 v 295 81 c 0,10.11698 0.95694,24.25458 -0.60352,35 -3.45898,9.38098 -15.3825,17.88602 -21.39648,26 -28.81194,-11.95698 -55.85704,-39.47374 -79,-59.8457 -72.70786,-64.00288 -137.999997,-144.5715 -137.999997,-246.1543 0,-40.67792 8.233902,-76.01506 31.001947,-110 8.17498,-12.20298 18.15407,-26.21349 30.99805,-33.85547 2.049,-1.21912 4.14214,-1.66482 6.26172,-1.67773 z m 326.64258,10.55078 c 18.72327,-0.42531 25.16376,30.15789 5.0957,35.42383 -22.64594,5.94197 -31.13594,-29.66319 -9,-34.91016 1.35319,-0.32069 2.65608,-0.48532 3.9043,-0.51367 z m -56.9375,0.9082 c 19.04955,-1.00541 25.99439,29.13932 6.0332,35.13086 -22.02994,6.61297 -31.80994,-28.77605 -10,-34.49805 1.37319,-0.36031 2.69682,-0.56578 3.9668,-0.63281 z m 111.06445,0.0391 c 19.29688,-0.65879 25.44181,30.0969 4.96875,35.1875 -22.07894,5.49 -30.70194,-29.34514 -9,-34.61914 1.39937,-0.34006 2.74479,-0.52444 4.03125,-0.56836 z m -354.86914,15.93164 c -2.61715,-0.0441 -5.3385,0.12583 -8.16211,0.53125 -50.73885,7.285 -56.33085,82.60785 -7,97.13282 6.49197,1.91097 14.30503,2.10367 21,1.13867 57.32267,-8.26357 47.37729,-97.9057 -5.83789,-98.80274 z m 272.24609,6.01563 c 1.047,6.06197 5.03336,11.35739 8.5918,16.08789 -6.36797,0 -11.83703,0.369 -18,2 3.953,-5.80597 8.258,-10.75803 9,-18 z m 55.5918,3.08781 c 1.97973,5.27185 5.425,9.357 8,14 -6.17197,-0.486 -10.91403,-0.256 -17,1 3.9285,-4.2365 6.96633,-9.44425 9,-15 z m -329.56641,1.51367 c 40.30107,-0.39851 52.03816,66.6287 8.56641,76.98242 -48.28585,11.49997 -64.89685,-65.14482 -17,-75.96679 2.93275,-0.66269 5.74687,-0.98906 8.43359,-1.01563 z m 313.56641,17.48633 c -3.727,5.35797 -7.184,10.05903 -10,16 h -1 c -1.029,-5.77097 -4.692,-9.78803 -7,-15 6.39397,1.186 11.69203,0.223 18,-1 z m -36.93164,4.03906 c 19.32329,-0.22593 23.19595,32.05665 1.93164,36.41602 -21.75194,4.45897 -27.51094,-31.05195 -6,-35.91992 1.42269,-0.32194 2.78014,-0.48104 4.06836,-0.4961 z m 53.87891,0.97461 c 18.86509,-0.38375 24.41986,31.16602 4.05273,35.59571 -22.25494,4.83997 -29.59994,-29.93018 -8,-35.07618 1.37225,-0.32693 2.68959,-0.49394 3.94727,-0.51953 z m -27.94727,24.98633 c 0.8722,5.55143 4.35207,9.53205 7,13 -5.16197,-0.404 -8.98903,-0.585 -14,1 2.152,-4.86 5.499,-8.80103 7,-14 z m 1.93945,23.23438 c 18.71942,0.88282 22.53924,32.3614 2.06055,35.55078 -22.93594,3.57197 -28.78894,-31.48874 -6,-35.30274 1.37762,-0.23056 2.69149,-0.3069 3.93945,-0.24804 z m -208.38476,3.69335 c -2.74098,-0.0693 -5.59308,0.0919 -8.55469,0.50196 -8.45898,1.171 -16.89802,3.43375 -24,8.34375 -46.2349,31.96494 -17.94988,106.66068 38,97.92968 59.84279,-9.33869 50.28792,-105.36697 -5.44531,-106.77539 z m -2.41602,10.94727 c 46.46898,0.1548 53.81165,78.62338 3.86133,85.82422 -53.7099,7.74298 -64.3619,-76.86379 -11,-85.25977 2.47247,-0.38901 4.85331,-0.57206 7.13867,-0.56445 z m -110.92969,74.34375 c -3.54097,-0.0534 -7.28312,0.38492 -11.20898,1.39063 -50.841895,13.02396 -30.1699,94.18983 21,80.50585 45.65945,-12.2102 31.99251,-81.26659 -9.79102,-81.89648 z m 1.00196,10.93945 c 33.83598,0.79908 37.48048,56.83191 0.78906,61.55274 -38.33092,4.93098 -44.10092,-56.19182 -6,-61.25782 1.8089,-0.24055 3.54687,-0.33422 5.21094,-0.29492 z"
       sodipodi:nodetypes="scccccccccscsccsccscsccssscccccsccccssccccccccsccssscsccsccsccccccsscccccccccssscscccccssccccccsssscscccccssssccssccscccccscscsccssssccccscssscccccccccccccssccccscccscsssccsscscssccscccscccccccccsccccccccscccsccsccscssccscccsscccsccsscsssss" />
  </g>
</svg>
