<?xml version="1.0" encoding="UTF-8" standalone="no"?>
<!-- Created by UniConvertor 2.0rc5 (https://sk1project.net/) -->

<svg
   height="658.93994"
   width="712.42529"
   version="1.1"
   id="60667370-4967-11ee-83bc-a8a1598cb569"
   sodipodi:docname="Sazano_Wine_logo_minimal_white.svg"
   inkscape:export-filename="Sazano_Wine_logo_white_prplborder.svg"
   inkscape:export-xdpi="96"
   inkscape:export-ydpi="96"
   inkscape:version="1.2.2 (732a01da63, 2022-12-09)"
   xmlns:inkscape="http://www.inkscape.org/namespaces/inkscape"
   xmlns:sodipodi="http://sodipodi.sourceforge.net/DTD/sodipodi-0.dtd"
   xmlns="http://www.w3.org/2000/svg"
   xmlns:svg="http://www.w3.org/2000/svg">
  <defs
     id="defs74" />
  <sodipodi:namedview
     id="namedview72"
     pagecolor="#ffffff"
     bordercolor="#000000"
     borderopacity="0.25"
     inkscape:showpageshadow="2"
     inkscape:pageopacity="0.0"
     inkscape:pagecheckerboard="0"
     inkscape:deskcolor="#d1d1d1"
     showgrid="false"
     inkscape:zoom="0.93483486"
     inkscape:cx="76.484097"
     inkscape:cy="293.63475"
     inkscape:window-width="1920"
     inkscape:window-height="991"
     inkscape:window-x="-9"
     inkscape:window-y="-9"
     inkscape:window-maximized="1"
     inkscape:current-layer="g69" />
  <g
     id="g69"
     transform="translate(31.021523,16.045593)">
    <rect
       style="fill:#843769;fill-opacity:1;stroke-width:1.02742"
       id="rect840"
       width="712.42529"
       height="658.93994"
       x="-31.021523"
       y="-642.89435"
       ry="100.44143"
       transform="scale(1,-1)" />
    <path
       id="path41"
       style="display:inline;fill:#ffffff;fill-opacity:1;stroke-width:3.55489"
       d="m 598.20101,297.71112 c -16.12304,-13.28535 -39.0613,-20.99849 -69.61379,-19.2875 -18.63353,1.04671 -34.83109,7.47858 -50.37814,17.10787 6.78366,-29.73942 16.26529,-57.09138 3.44983,-86.92819 C 455.55256,147.83651 366.55975,126.72984 318.17863,175.55662 405.82831,71.473342 214.50283,-45.185842 145.66397,72.968657 c -7.91088,13.573577 -13.156,28.857493 -13.96415,44.413783 -0.95775,18.4426 2.23773,37.31821 11.49842,53.52928 12.12678,21.23783 29.74105,32.70737 51.5322,43.58956 -97.171245,18.03131 -145.939798,138.45376 -46.63324,190.44407 -22.90298,5.95161 -43.25451,11.29947 -61.94717,26.36115 -121.558092,97.947 65.815,253.32731 149.32347,124.84958 11.3793,-17.50536 15.67445,-35.17285 17.46436,-55.53236 62.12995,87.04485 188.30475,29.72739 188.76617,-67.12104 13.90893,15.55064 27.64848,29.14532 47.929,37.04854 120.38853,46.90195 178.43384,-115.27057 108.56798,-172.8401 z M 429.544,201.55376 c 51.24439,42.45852 -5.78262,137.09769 -72.39328,104.11733 -75.16622,-37.21801 -11.43507,-149.70556 60.675,-111.86421 4.40795,2.31339 8.30189,4.91624 11.71828,7.74688 z M 274.64529,71.434158 C 328.17403,113.14104 273.5648,207.81178 205.47791,176.96987 130.33356,142.93286 190.08009,28.006569 262.46994,63.852202 c 4.55795,2.256773 8.60674,4.801532 12.17535,7.581956 z M 572.39755,329.96634 c 53.34987,43.18507 -4.88878,137.58581 -72.15958,103.20638 -72.54762,-37.07579 -11.0439,-147.86739 59.96791,-111.10626 4.57895,2.37046 8.63498,5.02087 12.19167,7.89988 z M 297.50433,194.87611 c -11.91918,18.22448 -14.09343,41.29186 -16.04284,61.89229 -17.07731,-14.8173 -32.64045,-26.58191 -53.13034,-36.67436 24.70596,-5.92347 48.28146,-8.80384 67.86492,-25.93886 z M 439.08622,332.2719 c -7.49832,18.33687 -8.18339,36.9932 -12.55759,55.07738 -15.371,-15.62698 -28.64678,-26.062 -48.01914,-36.95191 20.82738,-1.89281 41.62581,-8.38773 60.57673,-18.12547 z m -89.0666,12.25542 c -23.0116,5.28249 -43.7031,9.48241 -65.68796,18.40305 l -2.68175,-2.32685 c 11.26046,-17.42465 11.19622,-36.41021 17.66872,-55.35501 14.26581,17.96671 30.81336,27.78637 50.70099,39.27881 z M 241.16563,269.11263 c 52.36912,44.37394 -15.67261,137.46412 -83.28892,99.33915 -69.165933,-39.00022 1.66001,-144.88776 71.1733,-107.51357 4.59745,2.47191 8.62433,5.21612 12.11562,8.17442 z M 383.28778,397.019 c 51.52382,42.89673 -10.22666,137.9924 -75.60782,102.13815 -71.44042,-39.1783 -6.66728,-146.82689 63.76007,-109.9697 4.47425,2.34147 8.41276,4.97177 11.84775,7.83155 z m -135.64945,0.0471 c -11.1476,16.48805 -11.48596,34.95263 -12.80991,50.14612 -12.86161,-13.06331 -22.68515,-22.43972 -39.97396,-29.9714 17.57804,-7.65037 36.12818,-10.1267 52.78387,-20.17472 z m -51.24443,65.02617 c 48.05613,45.8565 -18.17413,136.72975 -80.84115,97.38564 -70.186236,-44.06537 -0.7061,-148.99907 69.67393,-105.90617 4.25455,2.60508 7.96354,5.46342 11.16722,8.52053 z"
       sodipodi:nodetypes="ccccccccccccssccccsccsccccccccccccccccscccsccsccsccscccccc" />
  </g>
</svg>
