<svg xmlns="http://www.w3.org/2000/svg" width="86.007" height="81.793" viewBox="0 0 86.007 81.793">
  <g id="g69" transform="translate(0.212 0.199)">
    <path id="path41" d="M56.16,1.763a5.03,5.03,0,0,0-3.775,1.395,52.258,52.258,0,0,1,13,1.289c1.021.258,4.345.816,4.129,2.434-.2,1.529-3.6,1.994-4.765,2.278-5.117,1.241-10.842,1.312-16.088,1.312A5.444,5.444,0,0,1,50.391,8.48a3.688,3.688,0,0,1,1.4-.274l3.839-.2c1.148-.161,5.212-.443,5.691-1.791.514-1.447-2.785-2.005-3.713-2.059-2.622-.151-5.534-.668-7.384,1.452,1.681-.015,2.195-.13,4.02-.116.336,0,3.231-.007,3.254.539-.1.528-2.926.558-3.39.578-1.167.051-3.272-.18-4.284.361A8.861,8.861,0,0,0,47.42,9.419c-.353.494-1.331,1.658-1.064,2.339.186.473,1.116.308,1.508.308,1.517,0,3.01-.054,4.521-.128,4.833-.235,9.787-.452,14.493-1.7C68.553,9.8,71.2,8.916,71.1,6.748,71.01,4.936,69.32,4,67.808,3.513a46,46,0,0,0-11.03-1.725C56.561,1.776,56.356,1.767,56.16,1.763ZM78.337,8.194a.691.691,0,0,0-.157.012c-.656.127-3.391,1.663-3.224,2.4.514.751,1.4,1.69,1.89,2.388a31.265,31.265,0,0,1,2.948,5.319,30.562,30.562,0,0,1,.113,24.2c-.782,1.882-1.971,3.583-2.742,5.451a.968.968,0,0,0,1.015,1.445c2.991-.069,5.142-4.727,6.263-7.03,3.95-8.116,3.485-17.248-.187-25.4a37.159,37.159,0,0,0-3.969-6.914c-.4-.534-1.165-1.849-1.95-1.878ZM38.576,9.88c-.786-.006-4.462.192-5.214.291A49.376,49.376,0,0,0,23.4,12.307c-1.63.631-3.95,1.63-4.226,3.615-.3,2.132,3.2,3.212,4.758,3.667a52.21,52.21,0,0,0,14.681,1.726,13.342,13.342,0,0,0,2.471-.266,3.172,3.172,0,0,0,1.768-1.138,4.863,4.863,0,0,0,1.077-1.352,13.782,13.782,0,0,0,.4-5.03,11.1,11.1,0,0,0-.552-3.133c-.37-.435-1.238-.442-1.763-.455-.758-.019-2.652-.054-3.438-.061Zm31.665.1a1.1,1.1,0,0,0-.3.046c-2.375.709-4.835,1.639-7.313,2.172-3.379.726-6.943.717-10.371,1.043A31.846,31.846,0,0,1,48,13.258c-.545-.023-1.247-.228-1.515.419-.444,1.067-.08,2.955-.08,4.107v53.85c0,.8-.462,3.425.8,3.294a12.089,12.089,0,0,0,3.455-1.4c3.695-1.75,7.033-4.674,9.972-7.47C66,60.942,71.4,55.1,74.688,48.365a53.507,53.507,0,0,0,4.65-17.418c.722-6.115-1.34-11.982-4.9-16.886-.771-1.062-2.647-4.1-4.2-4.081Zm7.517,0c.779-.036,1.227.8,1.838,1.686a34.2,34.2,0,0,1,3.275,5.85c3.058,7.091,4.2,15.055,1.082,22.338a35.39,35.39,0,0,1-2.263,4.388c-.4.658-.739,1.373-1.516,1.6a21.569,21.569,0,0,1,1.488-3.723,31.655,31.655,0,0,0,1.8-6.515,31.984,31.984,0,0,0-2.4-18.083c-1.15-2.511-3.164-4.7-4.214-7.18a1.82,1.82,0,0,1,.908-.357ZM41.021,11.376a10.2,10.2,0,0,1,1.524.159c.3,2.549,1,6.3-1.463,7.67a9.156,9.156,0,0,1-4.255.654A47.432,47.432,0,0,1,25.26,18.365c-1.226-.305-3.789-.8-4.412-2.049-.27-.543.307-1.081.691-1.387a11.493,11.493,0,0,1,3.987-1.722A51.928,51.928,0,0,1,36,11.605a49.062,49.062,0,0,1,5.019-.23Zm28.886.381a1.06,1.06,0,0,1,.693.22,16.36,16.36,0,0,1,3.748,4.611c3.353,5.462,3.867,10.641,3.188,16.886C76.2,45.8,68.987,56.445,59.964,64.609c-3.672,3.322-7.416,6.67-12.1,8.487V14.726a25.388,25.388,0,0,0,6.249-.121,82.622,82.622,0,0,0,10.5-1.268,30,30,0,0,0,4.122-1.229A4.215,4.215,0,0,1,69.907,11.757ZM10.369,18.316a7.273,7.273,0,0,0-3.285,2.925A28.837,28.837,0,0,0,2.9,30.016c-3.789,13.219,2.059,27.247,10.364,37.5a51.037,51.037,0,0,0,8.4,8.29c.727.56,3.145,2.81,3.665.882.33-1.222-1.066-2.182-1.8-2.923a64.417,64.417,0,0,1-5.788-6.781c-5.52-7.36-9.781-16.086-10.422-25.4a31.342,31.342,0,0,1,1.94-13.3,30.168,30.168,0,0,1,2.074-4.255c.3-.525.947-1.234.937-1.861-.017-1.179-1.319-2.862-1.906-3.856Zm9.674,1.391a1.176,1.176,0,0,0-.234.029c-1.515.351-2.922,1.969-3.867,3.1a24.468,24.468,0,0,0-5.529,10.637c-3.381,15.94,5.423,29.768,16.841,40.044A99.679,99.679,0,0,0,36.7,81.17c.8.559,2.541,2.205,3.578,1.968.488-.111.81-.637,1.1-1,.777-.964,2.688-2.361,2.879-3.59a51.324,51.324,0,0,0,.149-5.313c.154-5.7,0-10,0-15.695V25.762c0-.816.236-2.076-.213-2.792-1.147-1.827-3.8-.931-5.637-.931a91.845,91.845,0,0,1-13.429-1.2,27.019,27.019,0,0,1-3.457-.669,5.747,5.747,0,0,0-1.628-.465Zm-10.087.764c.808,0,.929,1.331.671,1.834a43.688,43.688,0,0,0-3.6,7.978c-2.559,8.99-.874,19.1,3.243,27.39a65.315,65.315,0,0,0,5.437,9.041c.633.883,2.29,2.335,2.109,3.457-2.683-1.89-4.8-5.278-6.6-7.978C5.625,53.815,2.131,43.863,3.57,33.739a27.072,27.072,0,0,1,3.966-10.5c.431-.678,1.5-2.765,2.42-2.765Zm60.8.952a3.515,3.515,0,0,0-2.4,1.16A3.752,3.752,0,0,0,67.41,24.3a5.211,5.211,0,0,0-2.127-2.537,3.762,3.762,0,0,0-5.324,3.07c-.259-5.083-8.483-3.69-7.35,1.329a3.894,3.894,0,0,0,2.436,2.824,4.123,4.123,0,0,0,2.526-.032c-2.2,2.888-.46,7.479,3.59,6.515a5.462,5.462,0,0,0-1.024,2.26c-.827,5.74,8.279,5.537,7.283-.133a4.457,4.457,0,0,0-.941-1.994c3.927.935,5.92-3.771,3.457-6.515a4.658,4.658,0,0,0,2.26-.128c4.5-1.624,1.943-7.621-1.443-7.535Zm-50.511.013a6.655,6.655,0,0,1,1.428.26c1.5.334,3,.6,4.521.838a108.451,108.451,0,0,0,16.753.834V73.362a35.084,35.084,0,0,1-.08,4.654c-.46,1.247-2.045,2.378-2.845,3.457-3.831-1.59-7.427-5.249-10.5-7.957-9.667-8.51-18.349-19.223-18.349-32.729a24.986,24.986,0,0,1,4.122-14.626,14.478,14.478,0,0,1,4.122-4.5,1.6,1.6,0,0,1,.833-.223Zm43.431,1.4c2.49-.057,3.346,4.01.678,4.71-3.011.79-4.14-3.944-1.2-4.642a2.494,2.494,0,0,1,.519-.068ZM56.1,22.96c2.533-.134,3.456,3.874.8,4.671-2.929.879-4.23-3.826-1.33-4.587A2.621,2.621,0,0,1,56.1,22.96Zm14.767.005c2.566-.088,3.383,4,.661,4.679-2.936.73-4.082-3.9-1.2-4.6a2.652,2.652,0,0,1,.536-.076ZM23.686,25.083a6.822,6.822,0,0,0-1.085.071c-6.746.969-7.49,10.984-.931,12.915a6.872,6.872,0,0,0,2.792.151c7.622-1.1,6.3-13.018-.776-13.137Zm36.2.8a5.257,5.257,0,0,0,1.142,2.139,8.885,8.885,0,0,0-2.393.266,5.2,5.2,0,0,0,1.2-2.393Zm7.392.411a13.923,13.923,0,0,0,1.064,1.861,7.413,7.413,0,0,0-2.26.133A5.944,5.944,0,0,0,67.277,26.294Zm-43.82.2c5.359-.053,6.919,8.859,1.139,10.236-6.42,1.529-8.629-8.662-2.26-10.1a5.322,5.322,0,0,1,1.121-.135ZM65.149,28.82a14.617,14.617,0,0,0-1.33,2.127h-.133a8.738,8.738,0,0,0-.931-1.994A6.037,6.037,0,0,0,65.149,28.82Zm-4.911.537c2.569-.03,3.084,4.262.257,4.842-2.892.593-3.658-4.129-.8-4.776A2.587,2.587,0,0,1,60.239,29.357Zm7.164.13c2.508-.051,3.247,4.144.539,4.733-2.959.644-3.936-3.98-1.064-4.664a2.48,2.48,0,0,1,.525-.069Zm-3.716,3.322a3.841,3.841,0,0,0,.931,1.729,4.427,4.427,0,0,0-1.861.133A14.815,14.815,0,0,0,63.687,32.809Zm.258,3.089c2.489.117,3,4.3.274,4.727-3.05.475-3.828-4.187-.8-4.694a2.465,2.465,0,0,1,.524-.033Zm-27.707.491a7,7,0,0,0-1.137.067,7.294,7.294,0,0,0-3.191,1.109c-6.148,4.25-2.387,14.182,5.053,13.021,7.957-1.242,6.686-14.01-.724-14.2Zm-.321,1.456c6.179.021,7.155,10.454.513,11.411-7.141,1.03-8.558-10.22-1.463-11.336a5.978,5.978,0,0,1,.949-.075ZM21.166,47.73a5.652,5.652,0,0,0-1.49.185c-6.76,1.732-4.011,12.524,2.792,10.7,6.071-1.624,4.254-10.805-1.3-10.889Zm.133,1.455c4.5.106,4.984,7.557.1,8.184-5.1.656-5.864-7.471-.8-8.145a4.455,4.455,0,0,1,.693-.039Z" transform="translate(-1.725 -1.761)" fill="#682749" stroke="#682749" stroke-width="0.4"/>
  </g>
</svg>
