<svg xmlns="http://www.w3.org/2000/svg" xmlns:xlink="http://www.w3.org/1999/xlink" width="1025.355" height="1667.25" viewBox="0 0 1025.355 1667.25">
  <defs>
    <filter id="Path_7">
      <feOffset dx="3" dy="3" input="SourceAlpha"/>
      <feGaussianBlur stdDeviation="3" result="blur"/>
      <feFlood flood-opacity="0.161" result="color"/>
      <feComposite operator="out" in="SourceGraphic" in2="blur"/>
      <feComposite operator="in" in="color"/>
      <feComposite operator="in" in2="SourceGraphic"/>
    </filter>
  </defs>
  <g data-type="innerShadowGroup">
    <path id="Path_7-2" data-name="Path 7" d="M5261.55-5412.85s96.973,74.911-12.55,124.85-354.115,9.455-529.267,124S4467-4891.734,4481.6-4825.067s70.6,95.067,270.933,117.333,322.872,90.8,375.2,122.133,342.6,174.679,184,353.2c-81.2,91.4-300.614,194.366-440.206,235.3-133.6,39.176-253.2,55.293-363.733,104.968s0,146.533,0,146.533-37.034-82.98,0-103.867c45.545-25.687,210.382-56.367,388.267-125.6s357.813-115.813,491.672-217.467C5657.067-4397.066,5280.328-4585.2,5238-4608s-172.072-94.533-392.133-119.2-267.405-42.267-301.333-117.067,119.491-222.764,290.4-319.733c58.109-32.97,75.261-34.2,148.861-46.2s247.521-16.44,308.605-55.4C5384.953-5324.63,5261.55-5412.85,5261.55-5412.85Z" transform="translate(-4458.668 5412.85)" fill="#e5e5e5"/>
    <g transform="matrix(1, 0, 0, 1, 0, 0)" filter="url(#Path_7)">
      <path id="Path_7-3" data-name="Path 7" d="M5261.55-5412.85s96.973,74.911-12.55,124.85-354.115,9.455-529.267,124S4467-4891.734,4481.6-4825.067s70.6,95.067,270.933,117.333,322.872,90.8,375.2,122.133,342.6,174.679,184,353.2c-81.2,91.4-300.614,194.366-440.206,235.3-133.6,39.176-253.2,55.293-363.733,104.968s0,146.533,0,146.533-37.034-82.98,0-103.867c45.545-25.687,210.382-56.367,388.267-125.6s357.813-115.813,491.672-217.467C5657.067-4397.066,5280.328-4585.2,5238-4608s-172.072-94.533-392.133-119.2-267.405-42.267-301.333-117.067,119.491-222.764,290.4-319.733c58.109-32.97,75.261-34.2,148.861-46.2s247.521-16.44,308.605-55.4C5384.953-5324.63,5261.55-5412.85,5261.55-5412.85Z" transform="translate(-4458.67 5412.85)" fill="#fff"/>
    </g>
  </g>
</svg>
