<svg xmlns="http://www.w3.org/2000/svg" xmlns:xlink="http://www.w3.org/1999/xlink" width="464.341" height="154.484" viewBox="0 0 464.341 154.484">
  <defs>
    <filter id="path1203" x="0" y="0" width="464.341" height="154.484" filterUnits="userSpaceOnUse">
      <feOffset dx="7" dy="7" input="SourceAlpha"/>
      <feGaussianBlur stdDeviation="3" result="blur"/>
      <feFlood flood-opacity="0.161"/>
      <feComposite operator="in" in2="blur"/>
      <feComposite in="SourceGraphic"/>
    </filter>
  </defs>
  <g id="Group_42" data-name="Group 42" transform="translate(2 2)" opacity="0.7">
    <g transform="matrix(1, 0, 0, 1, -2, -2)" filter="url(#path1203)">
      <path id="path1203-2" data-name="path1203" d="M247.554,7.995c-6.575-.033-13.21.359-16.718,7.4-2.793,5.609.149,13.842,5.346,16.662a11.9,11.9,0,0,0,5.913,1.012c3.29-.005,7.526-1.3,9.215-4.538,2.385-4.574-1.6-11.488-6.713-10.914-2.628.3-5.3,3.4-3.473,6.123,1.722,2.569,2.452-.964,3.524-1.742s2.338.657,2.881,1.518a4.284,4.284,0,0,1,.617,1.432c.524,2.668-3.2,4.127-5.14,4.46-9.432,1.619-14.451-12.692-5.686-17.46,1.292-.7,3.135-.376,4.549-.376h58.678c1.232,0,3.444-.444,4.474.383,3.086,2.477,1.326,6.029.509,8.932a15.781,15.781,0,0,0-.228,8.359,27.178,27.178,0,0,0,4.114,8.12c.809,1.188,2.14,2.432,2.6,3.821.884,2.7-.5,6.291-1.762,8.6-3.23,5.916-9.783,8.381-15.389,10.919-1.653.749-3.877,2.648-5.686,2.6-2.7-.07-5.666-1.549-7.96-2.91-7.287-4.323-12.162-11.689-8.6-20.641.913-2.293,3.312-5.23,5.868-5.38,4.746-.278,7.777,5.894,6.9,10.157-.428,2.075-1.856,5.722-4.4,5.16a3.872,3.872,0,0,1-1.361-.648c-.994-.7-2.346-2.511-1.068-3.651.621-.555,3.362-.8,2.064-2.38-1.777-2.161-4.642.165-5.159,2.236-1.238,4.957,4.958,9.333,8.935,6.484,7.7-5.513,3.114-20.873-6.367-20.076-2.116.178-3.851,1.5-5.458,2.844a5.031,5.031,0,0,0-3.412-3.418c-1.74-.413-3.881.62-3.852,2.7.047,3.386,4.49,2.968,3.986.014-.284-1.661-1.784-.279-2.408.225,1.124-2.45,4.189-.881,4.489,1.433.129.994-.829,2-1.186,2.866a17.516,17.516,0,0,0-1.253,5.971c-.084,3.616.226,7.253,1.89,10.509,2.9,5.671,10.394,9.673,16.3,10.509-4.369,4.226-8.684,8.985-9.286,15.524-.567,6.148,4.485,10.927,10.2,8.416,3.449-1.516,4.343-5.683,3.461-9.133-.662-2.587-3.071-4.779-5.735-3.817-2.965,1.07-5.313,7.164-.91,7.877-.022-1.1-.762-2.571-.516-3.583a2.19,2.19,0,0,1,3.849-.921,4.856,4.856,0,0,1,.112,5.694c-1.978,2.987-6.174,2.013-7.646-.952-1.387-2.794-.3-6.617,1.264-9.076,7.92-12.479,25.905-11.49,31.781-26.033a17.753,17.753,0,0,0,.949-5.254,64.426,64.426,0,0,1,7.368,10.986c1.015,1.8,2.318,4.522,2.107,6.687-.194,1.987-1.606,3.33-2.424,5.016h-.455c-.549-1.534-.878-3.491-1.908-4.754-1.768-2.168-6.255-2.391-8.309-.592-1.18,1.032.373,2.422-.581,3.192-.692.559-2.025.509-2.848.912a11.259,11.259,0,0,0-5.163,6.019c-.305.753-.915,1.985-.5,2.8.9,1.747,5.244,1.022,6.8,1.022-2.378,2.737-2.978,5.939-2.567,9.553.1.864-.074,2.26.68,2.859.863.687,2.717.35,3.706.233,3.568-.421,7.16-1.561,8.415-5.481h.227c.411,1.467,2.235,4.537,4.093,3.784,1.385-.561,2.574-2.884,3.078-4.262.551-1.507.079-3.376.633-4.763.4-1.009,1.365-.884,2.2-.73,1.141-3.943,0-9.215-4.321-9.792a16.33,16.33,0,0,0,1.649-2.627c1.954-4.755-.671-7.794-1.876-12.181a10.853,10.853,0,0,0,8.858-5.971c1.5-3.521-.832-7.325-4.536-6.885a4.074,4.074,0,0,0-2.046.847,4.033,4.033,0,0,0-1.455,1.739c-.984,2.829,3.725,5.581,4.725,2.617.721-2.137-3.5-.573-2.254-2.3a2.074,2.074,0,0,1,3.35-.036c2.566,3.376-4.411,9.489-7.508,8.169-.9-.382-1.426-1.7-1.959-2.482-1.276-1.874-2.6-3.743-4.026-5.493-4.658-5.713-12.724-13.362-8.977-21.734a20.2,20.2,0,0,1,2.932-4.538,14.856,14.856,0,0,1,4.71-3.844c2.087-.983,5.034-.455,7.278-.455h15.92c2.415,0,5.726-.767,7.4,1.434,1.719,2.266-.6,6.384-.78,9.075-.536,8.212,5.536,14.177,13.4,11.334,2.647-.957,5.13-2.672,5.418-5.841.332-3.646-2.863-8.807-6.783-7.782-1.974.516-3.571,3.728-1.562,5.249,2.275,1.722,1.628-2.606,3.149-1.793,4.625,2.473.594,6.845-2.724,7.358-10.707,1.656-9.655-14.668-2.5-18.692,1.249-.7,3.171-.342,4.549-.342h46.624c3.787,0,7.605.061,11.372.437,1.428.143,2.941-.2,3.869,1.248.873,1.371.714,3.193.678,4.764-.1,4.374-2.079,11.8-5.049,15-1.865,2.007-6.043,3.405-8.363,1.581-2.984-2.344-1.612-7.1,1.588-8.4.889-.362,1.829.048,2.729.176-.432.841-4.542,3.144-.91,3.547a3.236,3.236,0,0,0,3.282-4.493c-.873-1.831-3.573-2.429-5.329-2.036-5.725,1.284-7.641,9.617-2.957,13.363,2.2,1.761,5.527,1.184,7.96.366-5.09,8.84-13.546,16.965-23.426,19.107.776-2.118,2.047-4.056,1.778-6.449-.873-7.742-11.34-10.748-17.471-9.553-.012,1.533-.092,4.036-1.823,4.575-1.006.313-2.6-.495-3.635-.651a14.083,14.083,0,0,0-5.231.462c-2.685.629-7.592,2.64-8.855,5.416-1.616,3.551,3.4,8.079,5.9,9.305-1.535.807-3.122,1.038-4.549,2.132-4.624,3.549-6.791,9.533-7.57,15.3-.248,1.835-1.219,4.4-.26,6.156.946,1.733,4.109,2.152,5.783,2.489,6.567,1.319,12.055.286,17.512-3.629-.4,2.239-.592,4.435-.845,6.687-.2,1.76-.558,6.273.908,7.5,1.133.947,3.457.178,4.713-.123A22.309,22.309,0,0,0,390,87.765a14.683,14.683,0,0,0,2.243-4.538c.24-.843.227-2.333.941-2.9,1.3-1.025,2.906.964,3.567,1.941,1.928-.568,3.468-2.968,4.33-4.777,2.674-5.609,1.18-15.549-5.922-16.48,1.545-1.627,4.409-2.308,6.368-3.336A53.333,53.333,0,0,0,408.35,52.9c0,4.9.38,9.753,2.777,14.091.823,1.491,1.687,3.326,3.364,3.821,1.385-2.646-1.936-9.184,2.729-9.744a5.878,5.878,0,0,1,1.819.19v.478c-1.483.738-3.32,3.53-1.672,5.11,1.34,1.283,3.7-.752,4.253-2.006A5.79,5.79,0,0,0,422,62.449a5.909,5.909,0,0,1,3.639,1.672c-1.365.067-4.265,2.2-1.795,3.2,1.123.455,2.311-1.027,3.259-.03,1.169,1.227.662,3.166,1.608,4.463,1.465,2,4.64.427,5.115-1.658-1.142.323-2.408,1.707-3.609.81s-.744-2.4-1.028-3.673a18.976,18.976,0,0,0-1.926-4.063c-1.406-2.419-3.541-1.923-5.718-2.465-.923-.23-1.612-1.028-2.5-1.365-2.076-.786-3.885.416-5.458,1.679,0-4.1-1.23-9.436.2-13.375,1.073-2.947,4.046-5.885,5.69-8.6a50.69,50.69,0,0,0,6.9-18.868c.432-3.186.608-8.863-2-11.19-.821-.732-2.061-.513-3.064-.513H385.38q-56.308,0-112.58-.239Zm410.066,0c-7.207,0-14.415.051-21.606.236-14.918.384-29.883-.022-44.8,0l-68.231.239H483.859c-1.062,0-2.458-.267-3.3.554-2.579,2.5-2.367,7.605-1.992,10.91a49.45,49.45,0,0,0,6.909,19.107c1.633,2.725,4.624,5.646,5.69,8.6,1.444,4,.2,9.446.2,13.614h-.227c-2.054-3.793-5.051-1.22-7.733-.553-2.113.526-4.387.152-5.718,2.464a19.284,19.284,0,0,0-1.895,4.063c-.28,1.185.1,2.548-.866,3.475-1.215,1.166-2.42-.077-3.575-.613.257,2.413,3.653,3.638,5.036,1.411.782-1.258.225-3.23,1.462-4.275.905-.765,2.161.548,3.257.06,2.452-1.092-.471-3.044-1.795-3.166a5.47,5.47,0,0,1,3.639-1.672,5.829,5.829,0,0,0,.375,2.387c2.372,5.414,7.635-.577,2.581-3.1v-.478a5.878,5.878,0,0,1,1.819-.19c4.665.56,1.344,7.1,2.729,9.744,1.676-.5,2.54-2.33,3.364-3.821,2.377-4.3,2.777-9.22,2.777-14.091a41.532,41.532,0,0,0,13.191,7.643v.239c-6.411,2.529-9,9.931-6.032,16.48.853,1.888,2.443,4.427,4.439,5.016.673-1,2.252-3,3.566-1.943.88.706.746,2.594,1.162,3.615a17.615,17.615,0,0,0,3.953,6.069,22.943,22.943,0,0,0,10.878,5.974c1.237.29,3.425.933,4.451-.177.764-.829.518-2.217.648-3.268a30.868,30.868,0,0,0-.778-10.748,26.951,26.951,0,0,0,3.866,2.782c3.96,1.882,8.774,1.493,12.964.865,1.819-.272,5.154-.629,6.348-2.313,1.221-1.723.052-4.7-.171-6.588-.9-7.522-4.656-15.018-12.09-16.957v-.239c2.488-1.143,7.544-5.844,5.9-9.305-1.205-2.544-6.1-4.8-8.634-5.379a15.928,15.928,0,0,0-5.458-.532c-1.105.151-2.791,1.011-3.858.547-1.61-.7-1.6-2.921-1.6-4.437-6.193-.822-16.63,1.392-17.469,9.553-.248,2.394,1,4.339,1.776,6.449-13.027-2.653-23.323-15.715-27.924-28.182-1.365-3.7-2.536-7.232-2.109-11.225.193-1.813.419-3.813,2.286-4.563,1.913-.768,4.364-.292,6.368-.493,7.628-.762,15.531-.2,23.2-.2,2.488,0,7.587-1.011,9.552.752,3.23,2.9,1.817,5.3,2.067,9.04a9.4,9.4,0,0,0,5.438,8.215c3.2,1.367,8.206,1.274,10.219-2.245,1.849-3.235.091-8.425-3.85-8.345-4.86.1-5.495,6.731-.227,5.719a13.634,13.634,0,0,0-.227-2.15c3.4,1.059.009,4.424-2.274,4.245-7.906-.619-7.148-11.963-1.137-14.926,1.242-.612,2.982-.306,4.321-.306h38.209c3.816,0,9.338-1.078,12.736,1a16.024,16.024,0,0,1,4.18,3.774,17.513,17.513,0,0,1,2.659,4.3c3.6,9.338-5.772,16.888-10.558,23.406-2.488,3.39-5.038,10.455-9.473,10.915-4.153.43-7.4-5.738-2.5-7.383.682-.229,1.99.241,1.706,1.214-.346,1.183-2.158.245-2.445,1.3-.437,1.614,2,2.2,3.014,1.946,3.277-.831,3.048-5.434.455-6.922-5.586-3.207-10.43,5.955-6.521,10.35,2.14,2.4,5.283,2.189,8.113,1.955-.71,5.766.814,9.595,6.6,10.986-.948-2-3.136-3.413-3.562-5.732-.478-2.607.6-5.19,1.774-7.4a59.08,59.08,0,0,1,7.473-11.225c.271,13.835,13.671,16.8,22.744,22.558a22.218,22.218,0,0,1,10.69,19.477h-.227c-.259-5.256-6.279-5.766-9.78-3.847-1.23.674-4.046,2.088-4.049,3.847,0,1.057,1.419,1.682.717,2.822-.625,1.018-1.953,1.559-2.74,2.454-2.511,2.854-5.629,10.191.386,10.478a24.219,24.219,0,0,0,3.184-.229c-1.833,4.63-1.051,8.341,1.228,12.658.689,1.3,1.838,3.706,3.32,4.13,1.262.361,3.152-1.122,4.094-1.856,3.182-2.48,6.129-5.495,6.141-9.917h.227c.766,1.843,3.894,6.921,6.139,6.585,2.542-.381,4.06-6.532,4.285-8.735a13.677,13.677,0,0,0-.33-5.016c-.282-.947-1.315-2.067-1.174-3.091.157-1.16,1.653-.969,2.452-.969.764-4.326-2.072-9.57-6.6-9.986-1.856-.171-3.73.807-5.458,1.388,3.992-8.337-2.245-16.187-7.733-21.5,8.315-1.807,16.8-6.967,18.1-16.48A21.934,21.934,0,0,0,636.2,40c-.387-1.313-1.683-2.99-1.731-4.3-.046-1.254,1.3-2.355,2.226-2.866-.819,3.657,3.8,4.735,3.853.955.027-1.967-2.176-3.078-3.853-2.748a4.951,4.951,0,0,0-3.411,3.464c-1.569-1.306-3.4-2.637-5.458-2.841-9.65-.958-13.821,14.453-6.368,20.088,3.882,2.933,9.893-1.486,8.954-6.26-.416-2.112-3.054-4.5-5.015-2.662-1.72,1.61,1.255,1.994,1.9,2.567,1.274,1.131-.066,2.961-1.067,3.645a3.972,3.972,0,0,1-1.59.666c-2.479.384-3.864-3.366-4.217-5.411-.7-4.058,2.176-10.144,6.718-9.919,2.809.139,5.2,3.084,6.157,5.62,4.262,11.257-5.747,22.8-16.619,23.309-1.779.083-4.06-1.712-5.686-2.429-5.547-2.444-12.238-5.316-15.388-11.088-1.249-2.286-2.638-5.925-1.763-8.6.455-1.39,1.785-2.633,2.6-3.821a27.4,27.4,0,0,0,4.085-8.12,15.421,15.421,0,0,0-.2-8.359c-.814-2.888-2.593-6.46.51-8.932,1.035-.825,3.236-.383,4.474-.383h58.678c1.412,0,3.259-.33,4.549.376,8.715,4.77,3.787,19.172-5.686,17.426-1.963-.362-5.688-1.641-5.14-4.427a4.249,4.249,0,0,1,.616-1.432c.55-.877,1.781-2.348,2.882-1.524s1.758,4.383,3.523,1.748c1.851-2.761-.876-5.734-3.473-6.124-5.1-.765-9.07,6.406-6.727,10.915,1.674,3.222,5.731,4.532,9,4.538a12.417,12.417,0,0,0,6.6-1.32c4.847-2.885,7.639-11.008,4.885-16.354C671.291,8.17,664.411,7.994,657.619,7.995ZM454.747,30.684c.65.9,1.96.781,2.957.978,2.074.41,6.866,1.546,7.54,4.047.8,2.986-4.947,3.791-6.63,4.146a28.084,28.084,0,0,1-12.281-.1c-1.747-.4-3.68-.779-4.979-2.171-1.4-1.5-.478-2.646.885-3.679A14.481,14.481,0,0,1,450.2,31.4c-.821-1.221-3.077-.548-4.321-.376-3.318.459-9.118,1.469-10.485,5.392-.892,2.561,2.832,3.658,2.5,5.5-.2,1.106-1.447,2.327-1.947,3.338a20.473,20.473,0,0,0-1.854,6.449c-1.112,9.722,3.43,17.951,8.667,25.555,1.519,2.2,3.5,6.2,5.848,7.4-.755-2.7-3.029-4.9-4.262-7.4-3.848-7.81-7.451-17.839-4.963-26.749.55-1.97,1.513-4.943,3.332-6.024,1.187-.706,3.453.461,4.756.539A91.714,91.714,0,0,0,457.931,45c1.214-.064,2.672-1.019,3.864-.73,1.035.252,1.847,1.774,2.379,2.65,3.8,6.261,3.259,15.3.915,21.973-1.278,3.641-3.364,6.926-4.656,10.509,1.765-1.508,3.066-3.989,4.321-5.971,4.071-6.428,7.3-14.082,6.068-21.973a23.169,23.169,0,0,0-1.833-6.21c-.487-1.032-1.733-2.222-1.935-3.338-.389-2.148,4.158-3.261,2.134-6.212C466.16,31.292,459.41,30.684,454.747,30.684Zm183.313,2.15a1.545,1.545,0,0,1,.91,1.194A1.755,1.755,0,0,1,638.06,32.833ZM376.964,43.1c4.747.1,14.146,2.541,12.847,9.315a11.411,11.411,0,0,1-2.007,4.777c-.968,1.251-2.405,2.144-2.652,3.821a16.678,16.678,0,0,1,7.668,1.027c6.915,2.956,7.114,10.755,4.386,16.885-1.386-.612-3.6-2.933-5.218-2.1-1.043.539-1.141,2.006-1.408,3.049a15.75,15.75,0,0,1-2.2,4.78,20.813,20.813,0,0,1-13.013,8.12,88.913,88.913,0,0,1,1.137-16.957c-1.734,1.245-3.157,2.913-5,4-3.951,2.331-8.135,2.617-12.509,2.449-1.427-.055-5.2.008-6.134-1.332s.473-5.325.843-6.791c2.039-8.1,7.3-12.419,15.3-12.419-.721-1.585-2.181-1.809-3.508-2.656-2.471-1.576-6.046-4.261-6.727-7.375,3.25-1.944,5.872-3.975,9.78-4.056a11.538,11.538,0,0,1,4.094.629c.607.226,1.509,1.023,2.179.731C376.35,48.339,376.935,44.573,376.964,43.1Zm151.017,0c.175,2.335,1.317,4.013,1.819,6.21a27.668,27.668,0,0,1,4.321-1.567c4.719-.774,8.188,1.643,12.054,3.955-.646,2.956-4,5.616-6.368,7.1-1.428.9-3.1,1.237-3.866,2.928,7.967,0,13.273,4.383,15.3,12.419.348,1.389,1.724,5.519.842,6.758-.907,1.274-4.1,1.035-5.452,1.224a19.925,19.925,0,0,1-13.419-2.411c-1.749-1.077-3.111-2.7-4.776-3.9a89.266,89.266,0,0,1,1.137,16.957c-4.935-.33-10.7-4.3-13.319-8.6-1.021-1.676-1.8-6.786-3.516-7.42-1.765-.651-3.509,1.508-5,2.165-1.3-3.354-2.361-6.882-1.419-10.509,1.531-5.884,8.411-8.076,13.473-7.4-.246-1.678-1.685-2.57-2.652-3.821a11.441,11.441,0,0,1-1.954-4.538C513.639,45.672,523.091,43.146,527.981,43.1Zm9.683,9.583c-2.607-.039-5.748.97-7.863,1.432-1.265.276-2.563.455-2.957,1.882,4.369-.363,8.754-2.277,13.191-2.866A6.123,6.123,0,0,0,537.664,52.686ZM364.91,52.9v.239c2.112.412,4.283.519,6.368,1.094,2.237.618,4.494,1.721,6.823,1.772-.472-1.669-2.213-1.745-3.639-1.976A58.433,58.433,0,0,0,364.91,52.9Zm160.143,8.2a.783.783,0,0,0-.69.291c-.867,1.252,3.207,2.5,3.846,2.878a51.931,51.931,0,0,1,9.1,6.82c1.4,1.326,2.618,3.406,4.321,4.258-.4-1.61-1.649-2.833-2.666-4.06a33.028,33.028,0,0,0-9.388-8.218,16.65,16.65,0,0,0-4.195-1.941,2.151,2.151,0,0,0-.326-.027Zm-145.667.16c-.1,0-.2.013-.3.028a11.934,11.934,0,0,0-3.94,1.769,39.808,39.808,0,0,0-9.161,8.229c-1.016,1.227-2.267,2.45-2.665,4.06,2.078-1.039,3.638-3.716,5.458-5.254a61.247,61.247,0,0,1,12.054-7.882,1.221,1.221,0,0,0-1.16-.944,2.279,2.279,0,0,0-.285-.006Zm-65.5.863q.341-.011.664.007c3.733.2,5.67,3.211,5.1,7.961,1.232-.436,2.111-1.514,3.412-1.8,4.3-.932,4.994,3.853,5,7.29-.817,0-2.2-.149-2.781.612-.552.73-.025,2.124-.053,2.97-.071,2.149-1.215,4.876-3.307,5.493-1.115-1.713-2.182-4.727-3.639-5.971-.743,6.138-5.174,7.643-10.462,7.643,0-4.516-.18-9.967,4.321-12.419v-.239a23.741,23.741,0,0,1-8.415-.239c.293-2.834,2.873-5.679,5.231-6.881.865-.441,2.856-.4,3.361-1.315.463-.835-.391-1.992-.632-2.79A10.3,10.3,0,0,1,313.889,62.123Zm106.288,1.043a2.13,2.13,0,0,1-1.592,2.15A2.56,2.56,0,0,1,420.177,63.165Zm64.592,0a2.56,2.56,0,0,1,1.592,2.15A2.13,2.13,0,0,1,484.769,63.165ZM314.875,69.853a22.5,22.5,0,0,0-7.96,1.911V72a32.015,32.015,0,0,1,7.96-1.433Zm69.6.478c-1.75.391-1.757,2.514-2.178,4.06-1.1,4.046-2.915,8.268-3.508,12.419h.227c1.261-2.279,1.859-4.957,2.789-7.395C382.908,76.513,384.337,73.521,384.47,70.33Zm136.006,0c.13,3.138,1.585,6.213,2.67,9.085.919,2.435,1.533,5.123,2.788,7.395.321-1.145-.519-2.692-.832-3.821L522.5,73.913c-.375-1.493-.407-3.1-2.02-3.583Zm-99.844.239v.478c6.075,1.79.269,10.935-3.589,6.206a4.06,4.06,0,0,1-.885-1.907,10.621,10.621,0,0,1,.152-3.1c-3.639,1.15.191,6.394-1.362,8.573s-4.05,1.321-5.013-.93c-.823-1.925-.248-3.819.234-5.732-4.139,2.144-1.444,9.7,2.729,9.792,0,1.013.369,2.877-.175,3.74-1.765,2.805-5.181.95-6-1.591-.473-1.476.175-2.875.489-4.3-3.4,1.781-1.849,8.578,1.819,8.837-.4,3.332.512,7.221,4.321,7.4,0,3.042,1.208,3.74,2.388,6.231,1.406,2.968,2.133,8.238,6.254,7.818a11.152,11.152,0,0,0,2.729-.913c1.276,2.849,5.263,2.011,6.6-.482,1.1-2.046.055-3.974-.912-5.727,2.033-.95,3.625-5.077,1.137-6.449.459,1.827-.409,7.215-3.359,5.012-1.271-.949-.614-3.135-1.872-4.3,0,1.551.023,3.082-1.18,4.2a2.79,2.79,0,0,1-4.6-1.578,2.663,2.663,0,0,1,1.051-2.621c1.155-.71,2.463-.605,3.487-1.732,1.28-1.407.728-2.989,1.547-4.452.471-.845,1.492-1.058,2.113-1.755.45-.505.846-1.774,1.69-1.538,2.2.616,1.672,3.751.708,5.161-1,1.462-2.779,1.62-4.355,1.444-.191,2.321,2.775,1.193,3.862.446,2.961-2.032,2.738-5.6,1.142-8.327,3.02-.788,3.9-5.1,1.795-7.381-.844-.914-2.659-2.39-3.614-.978,4.01.98,4.667,7.268,0,6.926a2.636,2.636,0,0,0-1.592-2.627c.4,1.777.671,3.426-.523,5.014-1.044,1.387-3.191,2.459-4.264.474-.571-1.054.364-1.867.6-2.861a9.675,9.675,0,0,0-.132-3.344,5.753,5.753,0,0,0,4.967-2.866c1.41-2.821.48-7.218-2.92-7.4.555.861,1.433,1.371,1.815,2.388.976,2.6-.341,6.393-3.407,6.376-1.371-.008-2.186-1.235-3.411-1.6.946-1.1,2.415-1.323,3.225-2.629C426.2,74.929,423.916,70.746,420.632,70.569Zm63.227,0c-4.744.452-5.213,8.775-.227,9.315-2.368,3.5-6.575,2.512-6.973-1.911-.2-2.2,1.192-3,2.2-4.538-3.375.228-4.328,4.584-2.92,7.4A5.478,5.478,0,0,0,480.9,83.7a9.293,9.293,0,0,0-.1,3.344c.239.969,1.128,1.837.566,2.855-1.012,1.834-3,1.031-4.073-.233a5.9,5.9,0,0,1-.942-5.011,2.629,2.629,0,0,0-1.365,2.388c-4.615.365-4.032-5.966,0-6.926-.91-1.468-2.731.008-3.591.9-2.129,2.208-1.315,6.808,1.772,7.462-2.495,4.252-.173,10.125,5.231,9.076-.425-1.348-1.863-.973-2.957-1.349a3.927,3.927,0,0,1-2.293-2.711c-.325-1.05.234-4.744,1.976-3.642a14.784,14.784,0,0,1,3.364,3.646c.616,1.692.293,3.036,1.767,4.419,1.4,1.311,3.914.748,4.183,3.219a2.866,2.866,0,0,1-4.212,2.658c-1.576-.995-1.6-2.872-1.6-4.568-1.419.988-.525,3.056-1.665,4.143-2.929,2.8-3.921-3.047-3.566-4.859-2.288,1.261-1.13,5.8,1.137,6.448-.96,1.743-2.036,3.7-.924,5.731,1.358,2.478,5.258,3.378,6.609.479a9.223,9.223,0,0,0,2.5.913c4.31.458,5.015-4.723,6.482-7.818,1.169-2.468,2.388-3.218,2.388-6.231,4.43-.252,3.362-3.981,4.619-6.861.357-.818,1.519-1.131,2.081-1.8,1.64-1.951,1.956-6.26-.56-7.58.341,1.547.973,2.952.378,4.538-.9,2.381-4.24,4.084-5.888,1.36-.537-.888-.175-2.718-.175-3.749,4.189-.127,6.843-7.577,2.729-9.792.482,1.912,1.057,3.808.234,5.732-.951,2.223-3.477,3.065-5.012.93-1.551-2.158,2.288-7.419-1.362-8.572.28,2.33.393,4.618-1.819,6-2.274,1.424-5.377-1.351-5.208-3.856.116-1.712,1.51-2.462,2.252-3.821ZM318.741,72.241c-1.809,3.606-4.9,5.575-7.278,8.6,2.686-.9,8.106-5.258,7.733-8.6Zm2.957,2.15c.015,1.931.455,3.783.455,5.732h.455a22.416,22.416,0,0,0-.455-5.732ZM488.18,80.122c.277,2.111,2.208,3.246,2.424,5.254.769,7.182-11.731,4.749-7.881-1.911a9.735,9.735,0,0,1,2.045-2.335A4.7,4.7,0,0,1,488.18,80.122Zm-70.264.037a5,5,0,0,1,2.488,1.223c1.99,1.688,3.821,5.388,1.128,7.443-2.427,1.851-6.539,1.368-7-2.254-.255-2,.621-2.725,1.551-4.3.339-.575.469-1.506,1.023-1.9a1.236,1.236,0,0,1,.807-.209Zm201.337,3.155a3.624,3.624,0,0,1,3.451,2.539c.744,1.7.4,3.486.8,5.254,1.376-1.017,2.47-2.394,4.094-3.026,4.39-1.71,8.618,1.189,9.552,5.892-1.1.01-2.973.194-3.184,1.676-.2,1.381,1.34,3.5,1.526,5.012.432,3.481-.846,6.727-2.209,9.792-2.488-.734-6.223-5.834-7.051-8.359h-.227a14.937,14.937,0,0,1-5.231,11.556c-.805.7-2.243,2.252-3.4,2.059-1.249-.207-2.167-2.541-2.679-3.584-2.622-5.336-1.274-8.477,1.76-13.136-2.174.227-4.137.956-6.368.955-.623,0-1.831.223-2.265-.383-1.515-2.114,2.25-6.736,3.63-7.807.573-.444,1.906-.727,2.195-1.436.464-1.14-1.076-2.856-1.285-3.988C614.211,85.158,616.936,83.314,619.253,83.315Zm-205.42,6.292a1.376,1.376,0,0,1,.2.018c1.265.21,1.99,1.406,3.414,1.484-.252,1.241-.589,3.086-1.417,4.035a3.007,3.007,0,0,1-5.2-.93,10.332,10.332,0,0,1-.2-3.343c.905-.238,2.029-1.147,3-1.253a1.643,1.643,0,0,1,.206-.01Zm77.3.022a4.175,4.175,0,0,1,1.592.732c4.712,2.575-2.27,9.275-4.383,3.853a19.862,19.862,0,0,1-.848-3.1c1.287-.147,2.418-1.547,3.639-1.48Zm-69.368,1c.907,1.247,2.452,1.6,3.271,2.7,1.312,1.764-1.249,4.174-2.816,4.214-2.363.06-4.94-3.023-3.425-5.435C419.411,91.133,420.766,90.911,421.769,90.631Zm61.407,0a11.616,11.616,0,0,1,2.261.758c3.821,2.259-2.647,9.482-5.283,4.5a2.763,2.763,0,0,1-.373-2.352C480.35,92.408,482.335,91.779,483.177,90.631Zm134.869,1.433c-2.395.259-5.463,2.767-6.823,4.777C613.033,95.971,617.02,93.838,618.046,92.064ZM622.14,93.5c-1.444.45-1.79,2.185-2.131,3.583a28.83,28.83,0,0,0-.371,11.225h.227a43.506,43.506,0,0,1,.778-9.076C621.048,97.314,621.978,95.434,622.14,93.5Zm5,2.627c.355,3.426,3.357,6.809,4.549,10.031.334-1.015-.325-1.941-.714-2.866C630.147,101.315,629.29,96.83,627.143,96.124Zm-210.15.239c1.053.344,1.638,1.445,2.5,2.15-.259.849-.425,3.31-1.046,3.814-1.581,1.277-3.357-1.512-3.45-2.859C414.883,97.835,416.133,97.419,416.993,96.363Zm70.748.218c.456.06.846.535,1.174.817a2.81,2.81,0,0,1-.1,4.44c-.594.438-2.088,1.131-2.543.181a6.855,6.855,0,0,1-.246-1.6l-.573-2.149c.625-.388,1.41-1.59,2.09-1.691a.718.718,0,0,1,.2,0Zm-1.607,7.663C489.206,104.256,487.377,107.037,486.133,104.245Zm-68.089.006a2.484,2.484,0,0,1,1,.233,9.028,9.028,0,0,1-1.819,1.672C416.68,104.951,417.16,104.254,418.044,104.25Zm8.062.4c1.31-.02,3.933,1.156,4.46,2.23,1.324,2.695-2.586,6.455-4.535,3.974-.569-.724-.4-1.918-.4-2.79h-.455c-.223,3.322-5.715,4.4-6.107.478-.325-3.265,2.3-2.634,4.287-2.911.912-.127,1.619-.814,2.5-.96a1.65,1.65,0,0,1,.243-.021Zm52.729,0c.935.032,1.747.918,2.75,1,1.133.092,2.427-.522,3.382.337,1.647,1.482.921,4.84-1.335,5.139-2.113.28-3.1-1.469-4.321-2.827,0,.923.127,2.048-.553,2.762-1.274,1.336-3.7.121-4.353-1.33-1.3-2.914,1.929-5.167,4.431-5.082Zm-19.415,1.056a3.394,3.394,0,0,0-1.708.451c-1.581.884-2.429,4.716-2.72,6.442-1.346,7.983,1.649,18.677,7.26,24.352,1.444,1.46,3.091,2.136,4.762,3.193,1.042.658,1.442,2.052,2.329,2.915,1.553,1.508,3.218,1.305,5.19,1.305,1,0,2.133.248,2.729-.717-2.852,0-6.134-.258-7.505-3.344,4.2-.606,5.39-6.909,2.266-9.726-2.527-2.277-5.047-.294-5.213,2.8l-.009,4.3c-3.136-4.341-5.358-9.891-3.043-15.285.939-2.186,3.514-3.593,3.484-6.21-.038-3.314-3.84-10.441-7.822-10.476Zm-13.666.159q-.172,0-.346,0a4.608,4.608,0,0,0-2.488.862c-2.461,1.909-4.963,5.932-5.206,9.212-.225,3.041,3.239,5.251,4.021,8.12,1.487,5.438-1.358,9.062-3.364,13.614h-.227l-.009-4.3c-.146-2.708-2.573-5.195-4.99-3.05-3,2.657-2.6,9.75,2.042,9.976-1.374,3.085-4.894,3.344-7.733,3.344v.478c2.136.046,4.788.836,6.823-.133,1.717-.818,2.049-2.652,3.436-3.726,1.99-1.538,4.135-2.247,5.85-4.261,4.592-5.4,6.646-13.492,6.634-20.54,0-2.558-.637-6.794-2.372-8.755A2.808,2.808,0,0,0,445.755,105.869Zm-.3,1.749c1.37,0,1.305,2.155,1.023,3.313-.655,2.687-2.4,6.135-5.217,6.809-2,.479-1.754-2-1.388-3.227.725-2.427,2.452-5.819,4.9-6.752A1.944,1.944,0,0,1,445.458,107.619Zm14.126.06a3.5,3.5,0,0,1,1.93,1.012,12.775,12.775,0,0,1,3.557,5.824c.291.976.7,2.448-.35,3.1-2.834,1.749-5.811-4.619-6.266-6.68-.2-.929-.53-2.5.45-3.089A1.186,1.186,0,0,1,459.584,107.678Zm-2.79,4.448c.735.58.785,1.566,1.224,2.388,1.035,1.942,2.972,4.364,5.144,4.777-.541,2.208-1.783,4.079-2.008,6.449-.284,2.987.764,5.5,1.1,8.359h-.227C457.959,127.743,455.423,119.766,456.794,112.126Zm-8.87.239c.771,1.186.689,3.134.682,4.538a30.389,30.389,0,0,1-3.427,12.938c-.723,1.468-1.349,3.579-2.713,4.5.721-3.037,1.747-5.855,1.265-9.076-.191-1.277-2.061-4.676-1.663-5.69.359-.91,1.99-1.518,2.672-2.2C446.216,115.891,446.919,114.162,447.924,112.365Zm-13.368,19.244c.956-.425,1.785.546,1.956,2.012l.041,1.911a24.157,24.157,0,0,1-.455,3.1c-2.875-.14-4.173-3.651-2.52-6.1a2.472,2.472,0,0,1,.978-.923Zm34.966.176c1.651-.227,4.206,4.3,1.126,6.408a3.29,3.29,0,0,1-1.8.444,24.886,24.886,0,0,1-.453-2.866l.018-1.911C468.521,132.464,468.971,131.861,469.522,131.785Z" transform="translate(-227.76 -5.99)" fill="#4c0027"/>
    </g>
  </g>
</svg>
